<?xml version="1.0" encoding="UTF-8" standalone="no"?>
<!-- Created with Inkscape (http://www.inkscape.org/) -->

<svg
   xmlns:dc="http://purl.org/dc/elements/1.1/"
   xmlns:cc="http://creativecommons.org/ns#"
   xmlns:rdf="http://www.w3.org/1999/02/22-rdf-syntax-ns#"
   xmlns:svg="http://www.w3.org/2000/svg"
   xmlns="http://www.w3.org/2000/svg"
   xmlns:sodipodi="http://sodipodi.sourceforge.net/DTD/sodipodi-0.dtd"
   xmlns:inkscape="http://www.inkscape.org/namespaces/inkscape"
   width="100mm"
   height="100mm"
   viewBox="0 0 354.33071 354.33071"
   id="svg2"
   version="1.1"
   inkscape:version="0.91 r13725"
   sodipodi:docname="logo.svg">
  <defs
     id="defs4" />
  <sodipodi:namedview
     id="base"
     pagecolor="#ffffff"
     bordercolor="#666666"
     borderopacity="1.0"
     inkscape:pageopacity="0.0"
     inkscape:pageshadow="2"
     inkscape:zoom="0.9899495"
     inkscape:cx="168.41744"
     inkscape:cy="212.19147"
     inkscape:document-units="px"
     inkscape:current-layer="layer1"
     showgrid="false"
     inkscape:window-width="1301"
     inkscape:window-height="745"
     inkscape:window-x="-8"
     inkscape:window-y="-8"
     inkscape:window-maximized="1"
     showguides="true"
     inkscape:guide-bbox="true">
    <sodipodi:guide
       position="173.74623,383.85796"
       orientation="1,0"
       id="guide4428" />
  </sodipodi:namedview>
  <metadata
     id="metadata7">
    <rdf:RDF>
      <cc:Work
         rdf:about="">
        <dc:format>image/svg+xml</dc:format>
        <dc:type
           rdf:resource="http://purl.org/dc/dcmitype/StillImage" />
        <dc:title></dc:title>
      </cc:Work>
    </rdf:RDF>
  </metadata>
  <g
     inkscape:label="Layer 1"
     inkscape:groupmode="layer"
     id="layer1"
     transform="translate(0,-698.0315)">
    <ellipse
       style="fill:#777;fill-opacity:0.48809521;fill-rule:evenodd;stroke:#38FF18;stroke-width:0.91364467px;stroke-linecap:butt;stroke-linejoin:miter;stroke-opacity:1"
       id="path3340"
       cx="179.29155"
       cy="905.672"
       rx="144.87796"
       ry="187.94972" />
    <path
       style="fill:#000000;fill-opacity:1;fill-rule:evenodd;stroke:#000000;stroke-width:0.84704649px;stroke-linecap:butt;stroke-linejoin:miter;stroke-opacity:1"
       d="M -35.270947,1101.9976 270.24308,846.2932 317.24522,1122.1843 Z"
       id="path3342"
       inkscape:connector-curvature="0" />
    <path
       style="font-style:normal;font-variant:normal;font-weight:normal;font-stretch:normal;font-size:medium;line-height:125%;font-family:'Nirmala UI';-inkscape-font-specification:'Nirmala UI';letter-spacing:0px;word-spacing:0px;fill:#000000;fill-opacity:1;stroke:none;stroke-width:1px;stroke-linecap:butt;stroke-linejoin:miter;stroke-opacity:1"
       d="m 206.02207,807.7096 0,42.35554 6.33823,0 0,-16.20467 c 0,-2.70085 1.05594,-4.90635 3.16908,-6.62001 2.11321,-1.73226 4.7169,-2.60063 7.80941,-2.60063 6.13341,0 9.20069,2.98085 9.20069,8.94139 l 0,16.48392 6.33825,0 0,-17.62842 c 0,-7.76728 -4.45802,-11.65169 -13.37463,-11.65169 -5.61801,0 -9.94725,1.8071 -12.98826,5.42068 l -0.15454,0 0,-18.49611 -6.33823,0 z m -128.570281,2.29143 0,40.06411 14.688696,0 c 9.097025,0 16.350665,-1.87118 21.762475,-5.61514 5.43762,-3.76259 8.15847,-8.73653 8.15847,-14.92056 0,-13.02007 -9.76845,-19.52841 -29.302607,-19.52841 l -15.307034,0 z m 6.492848,4.24628 8.659588,0 c 15.101595,0 22.652695,5.131 22.652695,15.39431 0,5.15959 -2.02302,9.14577 -6.06899,11.95841 -4.04598,2.81264 -9.702862,4.21884 -16.970172,4.21884 l -8.273121,0 0,-31.57156 z m 62.547233,6.53772 c -5.0768,0 -9.56059,0.89476 -13.45198,2.68292 l 0,4.69259 c 3.83979,-2.34696 8.14332,-3.52071 12.91088,-3.52071 5.43762,0 8.15597,2.43169 8.15597,7.29324 l -11.86863,1.20184 c -8.71047,0.87545 -13.06549,3.98696 -13.06549,9.33282 0,2.49598 1.10745,4.4979 3.3237,6.00665 2.24208,1.50875 5.33509,2.26151 9.27799,2.26151 5.3603,0 9.42038,-1.7116 12.17781,-5.13891 l 0.15462,0 0,4.46816 6.33824,0 0,-18.60583 c 0,-7.11538 -4.64991,-10.67428 -13.95311,-10.67428 z m 38.80992,0 c -1.93278,0 -3.81538,0.17717 -5.64508,0.53113 -1.80395,0.35386 -3.41484,0.88544 -4.83221,1.59327 -1.41738,0.6892 -2.55056,1.55504 -3.40104,2.59809 -0.85041,1.02448 -1.27414,2.20703 -1.27414,3.54815 0,1.09898 0.21771,2.05783 0.65581,2.8774 0.46389,0.81957 1.13347,1.55474 2.00968,2.20667 0.90193,0.6333 2.01188,1.21139 3.32619,1.73293 1.34009,0.50293 2.88533,1.00562 4.63776,1.50852 1.26278,0.35391 2.43583,0.69947 3.51819,1.03474 1.10815,0.31666 2.06102,0.67985 2.85997,1.08965 0.82464,0.40975 1.46848,0.88353 1.93237,1.42369 0.48965,0.5216 0.73553,1.16375 0.73553,1.92746 0,2.6822 -2.78397,4.02434 -8.35041,4.02434 -4.14906,0 -7.94911,-0.92113 -11.40238,-2.76517 l 0,4.91699 c 2.98943,1.13623 6.51776,1.703 10.58952,1.703 2.06164,0 4.03313,-0.16587 5.91439,-0.50117 1.88122,-0.33529 3.54365,-0.84925 4.98677,-1.53846 1.44319,-0.68917 2.59053,-1.55503 3.44097,-2.5981 0.8762,-1.04312 1.31402,-2.27214 1.31402,-3.68777 0,-1.15486 -0.2692,-2.1514 -0.81032,-2.98962 -0.51544,-0.83818 -1.26234,-1.57333 -2.24165,-2.20665 -0.97928,-0.65193 -2.16646,-1.23 -3.55807,-1.73292 -1.39163,-0.52155 -2.9626,-1.02419 -4.71506,-1.50853 -1.3143,-0.3725 -2.48737,-0.71809 -3.51819,-1.03476 -1.03078,-0.31664 -1.90649,-0.66852 -2.62801,-1.05969 -0.72162,-0.3912 -1.27656,-0.83854 -1.66315,-1.34145 -0.36079,-0.50293 -0.54108,-1.12749 -0.54108,-1.87255 0,-0.59605 0.18029,-1.13642 0.54108,-1.62071 0.38659,-0.50292 0.91575,-0.93021 1.58583,-1.28413 0.69575,-0.35391 1.51992,-0.62408 2.47342,-0.81037 0.95353,-0.20488 2.02358,-0.30918 3.20903,-0.30918 3.78828,0 7.13888,0.69115 10.051,2.06954 l 0,-4.63774 c -2.70595,-0.85684 -5.77327,-1.2866 -9.20074,-1.2866 z m -31.19505,14.80837 0,2.84996 c 0,2.44008 -1.03023,4.4621 -3.09183,6.064 -2.03589,1.58327 -4.62796,2.37371 -7.77196,2.37371 -2.29359,0 -4.13632,-0.43858 -5.52791,-1.31402 -1.36584,-0.89412 -2.04709,-2.03892 -2.04709,-3.43592 0,-1.91855 0.74688,-3.2494 2.2416,-3.99444 1.49471,-0.76371 3.70956,-1.29527 6.64741,-1.5933 l 9.54978,-0.94999 z"
       id="path4243"
       inkscape:connector-curvature="0" />
    <path
       inkscape:connector-curvature="0"
       id="path4407"
       style="font-style:normal;font-variant:normal;font-weight:normal;font-stretch:normal;font-size:medium;line-height:125%;font-family:'Monsters Attack!';-inkscape-font-specification:'Monsters Attack!';letter-spacing:0px;word-spacing:0px;fill:#ffffff;fill-opacity:1;stroke:none;stroke-width:1px;stroke-linecap:butt;stroke-linejoin:miter;stroke-opacity:1"
       d="m 101.39232,917.96509 q -0.0404,0 -0.28425,-0.56856 -0.24369,-0.56846 -0.44671,-0.56846 -0.081,0 -0.12125,0.0404 l -0.609144,1.66493 q 0.121244,0 0.08095,0.36545 -0.04041,0.36549 0.12125,0.36549 l -0.649744,1.94926 0.243678,0.20303 q -1.908609,2.80201 -1.908609,4.62941 0.121247,0.0404 0.121247,0.16235 0,0.2437 -0.121247,0.2437 0,0.85279 0.690336,2.3553 0.690349,1.54313 0.690349,2.39593 0,1.17766 -0.812169,2.8426 l -0.527934,0 0,-1.17767 0.284257,-0.36546 -0.527884,-1.38069 q 0.243627,-0.0807 0.203045,-0.44671 -0.04042,-0.36548 0.04041,-0.36548 0,-1.86802 -2.639551,-4.50757 l 0,-1.4619 q 0,-0.93399 0.203032,-0.73096 -0.203032,-0.28427 -0.406064,-0.73095 0.121246,-0.12137 0.121246,-0.3249 0,-0.203 -0.121246,-0.40605 l 0.812168,-1.98982 0.121247,0.24364 0.730969,-1.05584 -0.487304,-1.54313 q 0.365485,-0.20303 0.365485,-0.77161 0,-0.93394 -0.812182,-2.39584 -0.771588,-1.50255 -1.54315,-2.15229 -0.406103,0.69037 -0.852788,0.69037 -0.203032,0 -0.203032,-0.28428 l -1.177666,1.13702 q -0.568505,-0.85274 -2.030415,-2.39589 l 0.203032,-0.28426 -0.203032,-0.12138 0.690374,-1.13706 -0.28431,-0.24362 0.28431,-0.28431 -0.203084,-0.32483 0.203084,-0.0809 -0.690374,-1.5025 0.203032,-0.28431 q -0.568504,-2.92381 -1.705589,-6.37556 0.243678,-0.12137 0.203045,-0.52797 -0.04041,-0.40603 0.04042,-0.40603 l -0.446684,-1.25887 0.203018,-0.32483 -0.406076,-1.62442 0,-4.38573 q -0.121249,-0.32488 -0.121249,-0.44674 0,-0.16234 0.121249,-0.16234 l -0.08096,-1.1777 -0.406103,0 -0.446698,1.38069 0.284284,0.20305 -0.406103,1.05586 0.121248,0.16234 q 0,0.73097 -0.568517,2.11169 -0.568517,1.38072 -0.568517,2.15232 l 0.284246,0.12124 q -0.365472,1.70562 -1.664952,4.62942 l 0.64975,0.56849 q -0.64975,1.13707 -1.502538,4.18273 -0.771553,2.80197 -1.705561,4.10149 l -0.243642,-0.12137 q -0.08136,-0.44675 -0.08136,-0.8934 0,-0.93402 0.284267,-1.7462 l -0.852787,-0.56848 -0.16241,0.20298 -0.324863,-0.0404 q -0.324864,-0.0809 -0.64973,-0.0809 -0.203058,0.0809 -0.203058,0.4061 -1.055807,-2.39595 -2.395911,-4.38577 l 0.203035,-0.48727 -0.487297,-0.2031 0.324885,-0.85276 q 0.284254,-0.69033 0.162399,-1.13705 -0.40608,-0.56853 -0.40608,-0.64972 0,-0.20307 0.203046,-0.20307 l -0.934004,-2.19287 0.243645,-0.32485 -0.446693,-0.4061 0.203048,-0.2842 q -1.015225,-1.90867 -1.015225,-3.37057 0.203061,0 0.121857,-0.32487 -0.04062,-0.36546 0.08136,-0.36546 l -0.609127,-1.70558 0.203034,-0.20307 -0.527911,-1.66494 -0.446693,0.12124 0.203034,0.28428 -0.52792,2.92386 q 0.162411,0.0404 0.08136,0.48729 -0.08136,0.4467 0.1624,0.4467 l -0.527912,1.66494 q 0.203048,0.0404 0.121858,0.73096 0,0.64974 -0.121858,0.97465 l 0,1.21821 q 0,0.97466 -0.284252,2.92387 -0.243671,1.94918 -0.243671,2.92381 0,0.48728 0.08136,0.60915 l -0.406094,1.17763 0.203058,0.28426 0,1.50255 q -0.08136,0.40606 -0.28428,2.15223 -0.203036,1.70553 0.08136,1.86804 0,0.73093 -0.406096,2.19286 -0.406083,1.42126 -0.406083,2.19286 l 0.284254,0.20303 -1.01521,2.11165 0.284263,0.16241 -0.406096,0.24367 0.121985,0.12137 q -0.446706,1.09645 -0.527925,4.06089 l 0.243642,0.28426 -0.365473,0.93402 0.121858,0.24364 -0.406081,0.934 -0.324879,0 q -0.487311,-1.01522 -0.812177,-3.6142 -0.04061,-0.69032 -0.04061,-1.2182 0,-0.4061 0.04061,-0.48733 l -0.446689,-0.8528 q 0.243658,-0.20305 0.243658,-0.40607 0,-0.73097 -0.649753,-0.73097 -0.324865,0 -0.406083,0.40606 -0.446694,-1.13701 -1.461916,-2.802 -0.324876,0.73097 -0.649737,0.73097 -0.121859,-0.0404 -0.20305,-0.12126 -0.893394,-0.85277 -1.25887,-3.08623 l -0.365473,0.93395 0.284257,0.28429 q 0,4.87303 -3.126869,7.71564 -0.203047,0.0809 -0.365485,0.0809 -0.446705,0 -0.446705,-0.52788 0,-0.48733 0.406095,-1.42131 l -0.121857,-0.20304 q 0.528008,-1.90868 0.528008,-3.45175 0,-1.38074 -0.527923,-2.39595 l 0,-1.74614 q 0,-0.77158 0.121858,-2.39598 0.121858,-1.62431 0.121858,-2.39585 0,-0.89345 -0.121858,-1.50255 l 0.284265,-0.40611 -0.406081,-1.54312 0,-4.58881 q 0,-0.60917 0.203036,-1.78677 0.243656,-1.46191 -0.08136,-1.78679 l 0.406108,-1.46192 0.121858,0.24368 1.421307,-1.90863 q 0.121856,-2.27409 -0.284257,-5.60402 l 0.406084,-0.6497 -0.527923,-2.47717 0,-6.65982 0.406096,-0.56857 -0.284257,-0.20298 1.786781,-1.46193 q -1.340088,0 -1.055833,-3.20809 l 0.324863,-3.6142 q 0.24367,-0.44669 0,-2.11165 -0.243645,-1.94919 -0.243645,-2.39592 0.203035,-0.44668 0.446704,-1.74617 l -0.203059,-0.3249 0.893394,-1.34005 -0.162399,-0.16242 0,-1.86798 0.527899,-1.98983 0,-2.55836 q 0,-4.58879 0.162398,-4.83245 l 1.705576,-0.52793 0.203047,0.16243 0.730956,-0.56852 q 0.08136,0.12137 0.649742,0.0809 0.609127,-0.0809 0.609127,0.0404 l 1.421305,-1.17767 -0.203046,-0.40606 0.730969,-0.73096 0.406082,0.24363 0.771556,-0.44671 0.284268,0.20308 2.477141,-1.01526 q 0.527911,0.20308 0.852786,0.20308 0.243644,0 0.324862,-0.20308 l 1.664954,1.25889 -0.284256,0.16241 0.609141,1.46191 q -0.08136,0.77157 -0.243667,1.58376 l 0.649751,2.7208 -0.203047,0.12124 0.690362,2.19287 -0.28428,0.20305 0.73097,1.98985 -0.20305,0.36548 2.680176,10.2334 -0.203044,0.20302 0.852774,2.80205 q -0.08136,0.24363 0,0.44666 -0.08136,0.4061 -0.08136,0.85281 0,1.29942 0.609114,2.88317 l -0.203032,0.20308 0.487313,0.73096 -0.284281,0.24366 0.609145,1.09644 q 0.406082,0.12138 0.406082,-0.89345 -0.20305,-1.38069 -0.20305,-3.65478 -0.284252,-0.0809 -0.08136,-1.25887 0.121858,-0.48729 0.324863,-1.78675 l -0.243657,-0.20307 q 0,-0.4873 0.568523,-1.82739 0.568535,-1.38068 0.487311,-1.8274 -0.284266,-0.73094 -0.284266,-1.13702 0,-0.40611 0.284266,-0.40611 L 84.25413,862.9798 q 0.162411,-0.0404 0.04062,-1.50249 -0.04062,-0.77154 -0.04062,-1.62435 l 0.446702,-0.77154 q 0.121846,-0.81219 -0.284266,-0.934 l 0.406096,-1.42138 q -0.162414,0 -0.203059,-0.12125 0,-0.0404 0.243654,-0.36549 0.243664,-0.32483 0.243664,-0.36547 l -0.284259,-0.0809 0.527885,-1.58374 -0.243626,-0.12138 q 0,-0.0809 0.203046,-0.32488 0.243689,-0.28425 0.243689,-0.36547 l 0,-1.50251 -0.446735,-1.01525 0.243626,-0.6091 -0.243626,-1.13706 0.771575,-1.62437 0.406116,0.16242 q 0.406015,-0.16242 0.487266,-0.32487 l -0.203045,-0.44672 1.868015,-1.54313 0.243625,0.20308 1.461913,-1.05585 q 0.162463,0.12137 0.609135,0.12137 0.60915,-0.0809 0.64978,-0.24364 l 0,-1.34008 -0.568554,-0.81218 1.177641,-0.44671 0.284296,0.20304 0.243665,-0.48728 0.162349,0.28424 q 0.243653,-0.0809 0.324903,-0.20301 0.121247,0.12138 0.121247,0.20301 1.98981,-0.69032 3.126882,-1.46189 1.055833,1.66493 1.258854,2.72078 -0.121248,0.16241 -0.121248,0.69034 0,0.24364 0.04041,0.77157 0.08095,0.52793 0.08095,0.81217 0,0.56853 -0.20302,0.56853 l 0.690387,1.9898 q -0.284321,0.28429 -0.284321,0.40609 0,0.28431 0.284321,0.48733 l -0.487367,1.05584 0,4.79182 0.203046,0.44671 q 0.08095,0.28428 -0.203046,0.40609 l 0.487367,1.25883 -0.203071,0.69041 q 0,-0.32489 0.121248,1.17761 0.08096,0.73094 -0.40609,1.25889 -0.04041,0.28425 -0.04041,0.40609 0,0.32487 0.527961,0.40607 0.324839,0 0.649679,0.0809 l 0,0.64974 q 0.08096,0.73097 0,2.39593 l 0.284271,0.32486 q 0,0.24367 0.04042,0.73095 0.08095,0.52794 0,0.81218 -0.08096,0.4061 -0.324877,0.52794 l 0.527909,2.31467 q -0.121247,0.0404 -0.121247,0.16245 0,0.12138 0.08096,0.24364 -0.08096,0.0809 -0.162438,0.20303 l 0.487328,1.58372 -0.487328,1.54316 q 0.406091,0.40608 0.487328,3.93908 0.04041,3.57354 -0.487328,4.26391 0.203032,0.0809 0.203032,0.28424 0,0.16241 -0.04042,0.28423 -0.162438,0.81219 -0.162438,0.48734 0,12.71049 1.340089,15.14707 l -0.20304,1.54314 0.20304,0.32483 -0.406101,0.93404 q -0.04042,0.60916 0.406101,1.78675 l 0,0.73096 -0.20304,0.16248 q 0.4061,0.44665 0.4061,1.58373 0.1624,0.64973 0,2.11167 l -0.20306,1.8274 q 0.12125,0.0404 0.20306,0.36547 0.12125,0.36547 -0.20306,0.40604 0,1.38072 0.56853,4.06089 0.56854,2.68019 0.56854,4.06086 0,0.73097 -0.081,1.42133 z m -9.624271,-44.46662 -0.609149,-0.93401 0,0.73097 -0.203033,0.0809 0.527923,0.52792 q 0,-0.20303 0.284259,-0.40611 z m -7.187768,0.32492 q -0.04062,-0.2031 -0.284252,-0.73097 0.203033,0 0.284252,-0.0404 -0.203036,-0.0809 -0.324862,-0.20302 l 0,1.58372 q 0.324862,-0.32487 0.324862,-0.60909 z m -2.558346,18.96423 0,-1.46189 -0.243647,0 0,0.48733 q -0.162412,0 -0.284263,0.0404 0.162401,0.36547 0.52791,0.93393 z m -7.30957,-5.84762 -0.446689,-0.40612 q -0.730974,1.21828 -0.730974,2.27409 0,0.40612 0.08136,0.60915 0.08136,0.20308 0.121857,0.20308 0.04062,0 0.04062,-0.16247 l -0.121858,-0.12125 0.284252,-1.0558 q 0,0.0404 0.04062,0.0404 0.04062,0 0.08136,-0.12124 l -0.121858,-0.12125 0.771581,-1.13701 z m 21.441405,26.47692 q -0.203033,0.2842 -0.203033,0.73093 0.203033,-0.20305 0.203033,-0.73093 z" />
    <path
       inkscape:connector-curvature="0"
       id="path4409"
       style="font-style:normal;font-variant:normal;font-weight:normal;font-stretch:normal;font-size:medium;line-height:125%;font-family:'Monsters Attack!';-inkscape-font-specification:'Monsters Attack!';letter-spacing:0px;word-spacing:0px;fill:#ffffff;fill-opacity:1;stroke:none;stroke-width:1px;stroke-linecap:butt;stroke-linejoin:miter;stroke-opacity:1"
       d="m 127.01642,867.1229 0,0 z m -2.68015,-2.23345 q 0,0.12124 -0.0404,0.16238 0,-0.12125 0.0404,-0.16238 z m 10.07097,20.34499 q -1.50255,2.68019 -1.50255,5.72581 l 0.44669,0 -0.28424,0.16245 0.40611,0.40604 q 0,2.27412 0.16237,2.92386 l -0.16237,0.24362 0.16237,0.56857 q 0,0.44665 -0.44665,1.74619 -0.44671,1.2588 -0.36548,2.19287 0.16237,1.62427 -0.0404,1.8274 0.36548,0.52786 0.36548,1.4619 0,0.40606 -0.12124,1.21826 -0.12125,0.81213 -0.12125,1.21823 l 0.16241,0.24367 -0.52792,1.54309 q 0.24367,0.12125 0.24367,0.20312 0,0.0809 -0.24367,0.28421 -0.24361,0.16243 -0.24361,0.24362 0,0.16246 0.24361,0.20312 l -1.74617,4.91361 q -1.17765,2.88323 -2.3959,4.46694 l -0.16249,-0.16234 q -0.60913,1.29944 -1.7868,2.55835 -2.4365,2.51771 -2.2741,2.84255 l -0.60908,0.52793 -0.16242,-0.16241 -1.17765,0.73097 -0.20305,-0.16241 -1.13705,1.34011 -0.44669,-0.56853 q -0.16243,-0.0809 -0.97463,0.0404 -0.4873,0.0809 -0.52793,-0.0404 l -1.17761,0.28425 q -0.0809,-0.0809 -0.16241,-0.0809 -0.16242,0 -0.24366,0.0809 l -1.17767,-0.8934 q -0.24363,-0.0404 -0.44668,-0.0404 -0.40608,0 -0.56852,0.24367 -1.90861,-0.97462 -2.68019,-1.62435 -1.21825,-1.01522 -1.58374,-2.51771 -1.58374,-1.34014 -5.23854,-8.48726 l -0.0808,0.0404 -0.20303,-0.12124 q 0.0404,-0.20307 0.0404,-0.20307 0.0404,0 0.081,0.0809 -0.5279,-0.56852 -1.13705,-2.03044 -0.60913,-1.4619 -1.13705,-2.03041 0.081,-0.16241 -0.16242,-1.13708 -0.32485,-1.13705 -0.32485,-1.29947 0,-0.4061 0.28426,-0.60912 l -1.09638,-2.96439 q 0.12124,0 0.12124,-0.12137 0,-0.20307 -0.12124,-0.20307 -0.24368,-1.50246 -0.12125,-4.79182 l 0.20304,-4.34513 0.60913,-1.54311 q -0.12125,-0.0404 -0.12125,-0.32491 0,-0.24367 0.12125,-0.36548 l -0.40609,-0.93399 0.40609,-0.81221 q -0.0404,0 -0.12125,-0.12125 0.081,-0.12138 0.12125,-0.28422 l 0,-2.55834 q 0.40607,0.12124 0.40607,-2.43656 l 0.20305,-0.0809 -0.20305,-0.16237 q 0.12124,-0.16241 0.4061,-0.4467 l -0.20305,-0.20304 q 0,-0.32491 1.42132,-3.5736 1.46189,-3.2487 1.78679,-3.65477 -0.081,-0.0809 -0.12125,-0.1624 0.12125,-0.16243 0.28429,-0.12138 0,-1.50253 2.03044,-3.93906 2.23347,-2.68017 2.63955,-3.89844 l 0.81219,-0.4873 0.20302,-0.5685 1.21829,-0.7716 0.12124,0.20306 0.20303,-0.36548 0.20306,0.16241 0.5279,-0.5685 q 0.12126,0.24366 0.28429,0.24366 0.0807,0 0.24364,-0.16242 0.20303,-0.20304 0.28424,-0.20304 0.16242,0.0404 0.24368,0.12125 l -0.12139,0.28424 q 0.0809,0.12138 0.1624,0.24363 0.0809,0.12138 0.12125,0.24368 0,0.32488 -0.69035,0.60913 l -0.56853,0.52793 0.12124,0.12124 -0.0809,0.48734 q 0.0809,0.20304 0.40611,0.16242 l 0.69032,-0.52793 q -0.0404,-0.52794 0.85282,-0.64976 l 1.42129,-0.32486 0.36548,-1.01525 0.93401,0 -0.1624,-0.32485 q 0.0809,0.0404 0.20302,0.0404 0.20304,0 0.36549,-0.0404 l 0.69035,0.56853 0.16239,-0.24368 1.66497,0.77159 0.40611,-0.16241 0.60912,0.56855 0.24365,-0.16241 q 0.73095,0.5279 1.09644,0.73093 0.8934,0.4873 1.34009,0.4873 l 0.60912,0.56857 q 0.73093,1.05584 1.94922,2.8426 -0.28429,0 -0.28429,0.2436 0.0404,0.16247 0.28429,0.52799 l 0.77158,0.56845 -0.16242,0.3655 q 0.56852,0 1.17769,1.09642 0.69031,1.21827 0.89335,1.29954 l -0.28427,0.16237 q 0.64975,1.9086 1.42133,2.68019 l -0.24367,0.12138 0.32489,0.73097 0.48729,0 q 0,0.48732 0.32489,1.34009 0.36547,0.8528 0.36547,1.29947 l -0.12125,0.24364 0.28427,0.56848 q -0.16237,0.0404 -0.16237,0.24368 0,0.0809 0.20303,0.3655 0.20305,0.28428 0.20305,0.36548 -0.0809,0.0809 -0.24368,0.0809 l 0.4061,0.69032 -0.20302,0.24365 q 0.16237,0.0404 0.40608,0.3249 l -0.20306,0.24367 0.36547,0.56851 q -0.16238,0.20298 -0.12124,0.36547 l 0.12124,0.28425 q -0.0404,0.12137 -0.0404,0.6497 -0.0809,0.52796 0.0404,0.5686 z m -32.40577,3.85778 q -0.081,0.0809 -0.081,0.12126 0,-0.12126 0.081,-0.12126 z m 0,0.4061 -0.081,0.16245 q 0,-0.12138 0.081,-0.16245 z m 0,0.56854 -0.081,0.20307 q 0,-0.12138 0.081,-0.20307 z m 20.87287,-23.91856 -0.1624,-0.56855 -0.52792,0 q -0.12125,0.81219 0.16241,1.25891 l 0.52791,-0.69036 z m 0.69039,27.08603 q -0.0404,0.12138 -0.0404,0.4061 0.0404,-0.20302 0.0404,-0.4061 z m -0.85281,3.77666 q -0.12125,0.16235 -0.12125,0.36549 0.12125,-0.20313 0.12125,-0.36549 z m 1.25887,-8.81213 -0.20304,-0.0809 q 0.0404,-0.36547 0.0404,-0.73094 0,-1.78676 -1.66493,-3.77664 l -0.24368,0 0,2.03044 q 0.32487,0.89338 0.32487,2.07103 l 0,0.0809 q -0.0404,-0.0404 -0.0809,-0.16246 -0.24368,-1.05581 -1.13706,-2.51771 l -0.40608,-0.16242 q -0.16242,-0.77158 -1.62435,-3.12689 -1.42132,-2.3959 -2.07104,-3.04568 l -0.40607,0 q 0.0404,0.28431 0,0.64978 -0.3249,0.81213 -1.46196,4.06089 -1.01522,2.802 -1.01522,3.73595 l -0.20301,0 0,1.05589 -0.20305,0.16237 0,0.93404 0.20305,0.12126 q 0,1.29947 -0.36549,2.96445 -0.56851,2.80202 -0.56851,3.04566 l -0.36548,1.21825 -0.24367,0 0,0.64977 0.52793,0.48727 0.6091,-0.48727 q 0.28428,-0.12137 0.32487,0.16235 l -0.12125,0.32489 0.60912,0.60918 q 0,0.20298 0.1624,0.69032 l 0,0.52793 -0.1624,0.0404 q 0.56854,0.64978 0.56854,0.81222 0,0.0809 -0.0404,0.0809 -0.0809,-0.0809 -0.20303,-0.0809 l 0.69037,0.89337 q -0.0809,0.1624 -0.16241,0.4061 l 0.4873,0 1.38073,2.55834 q 0,0.24367 -0.16242,0.36548 l 1.34009,2.35531 q 0.44666,0 0.60913,0.32483 l 0.36545,-1.05579 0,0 q -0.12123,-0.20299 0.12126,-0.28426 0.0808,-0.0809 0.16239,-0.0809 0.0809,0 0.12124,0.0809 0.40605,-1.13702 1.09643,-3.41115 0.24364,0.12138 0.36549,-0.40607 0.16237,-0.56851 -0.12125,-0.56851 0.40612,-0.4061 0.40612,-1.09643 0,-0.36549 -0.0404,-0.69032 l 0.16241,0 q -0.16241,-1.13706 0.40611,-2.47715 0.0404,0.0809 0.0404,0.0809 0.0404,0 0.0809,-0.0809 -0.0809,-0.0404 -0.12126,-0.16243 l 0.52792,-1.3807 0.24366,-1.58376 q 0,-0.16236 0.73096,-2.802 l 0,-0.52789 0.12124,-0.1624 q -0.12124,-1.17764 0.36549,-2.23351 -0.12125,0 -0.20304,-0.0809 -0.0404,-0.24365 0,-0.32489 l 0.40608,0 z m -1.42132,9.66488 0,-0.40607 -0.20304,0 0,0.40607 0.20304,0 z m 0,0.32487 -0.36547,-0.24366 -0.16242,0.97462 q -0.12125,-0.0404 -0.12125,0.12124 l 0.12125,0.0809 -0.40606,1.62435 q -0.12125,-0.0809 -0.12125,0.12135 -0.0809,0.16247 0.12125,0.16247 0,0.52783 -0.56854,1.74614 -0.56853,1.21827 -0.56853,1.62434 0.0809,0.12138 0.32488,0.16241 0.0404,0.0809 0.0809,0.0809 0.12125,0 0.12125,-0.0809 l -0.1624,-0.20304 q 0,-0.89339 0.52791,-0.89339 0.0809,0 0.12125,0.0404 l 0,-0.81219 q -0.12125,0 -0.12125,-0.0809 0,-0.20307 0.12125,-0.36548 0.16241,-0.93403 0.81219,-2.80202 l -0.16239,-0.12137 0.16239,-1.05589 0.24366,-0.0809 z m -18.47696,-13.80695 q -0.0404,0.16237 -0.0404,0.32484 0.0404,-0.16242 0.0404,-0.32484 z m 16.77139,20.58863 q -0.0404,-0.12126 -0.36547,-0.28427 l 0,0.28427 0.36547,0 z m -3.53292,1.86799 0,-0.32485 -0.40611,-0.64976 -0.24367,0 0.12125,0.0404 q 0,0.20301 -0.12125,0.36547 l 0.64978,0.56851 z m -0.36548,0.24361 0,0 z m -3.45177,2.51779 0,0 z m 3.16747,6.86291 q -0.0809,-0.0809 -0.16239,-0.0809 0.0809,0.0809 0.16239,0.0809 z m -5.52277,2.68017 0,-0.28433 q -0.12124,-0.12125 -0.20307,-0.44664 -0.20303,0 -0.56851,-0.0809 l 0,-0.52793 q 0.12126,0 0.16242,-0.0809 l -0.4061,0 q 0.48735,0.52792 0.52793,1.42131 l 0.48732,0 z" />
    <path
       inkscape:connector-curvature="0"
       id="path4411"
       style="font-style:normal;font-variant:normal;font-weight:normal;font-stretch:normal;font-size:medium;line-height:125%;font-family:'Monsters Attack!';-inkscape-font-specification:'Monsters Attack!';letter-spacing:0px;word-spacing:0px;fill:#ffffff;fill-opacity:1;stroke:none;stroke-width:1px;stroke-linecap:butt;stroke-linejoin:miter;stroke-opacity:1"
       d="m 157.31059,869.92495 -0.40609,0.93399 q 0.16241,0.12123 0.24361,0.32484 0,0.36547 -0.24361,0.36547 -0.0404,0.89342 0,1.70557 l -0.40611,0.97464 q 0.12125,0.12125 0.16245,0.24361 0,0.32488 -0.16245,0.40611 l 0.24369,0.81219 q -0.40611,0.73097 -0.40611,2.92384 0,1.05581 0.20306,3.24868 0.20305,2.15227 0.20305,3.24871 0,0.48734 -0.12124,1.46192 -0.12126,0.93398 -0.12126,1.38062 l 0,1.13708 0.2437,0.16246 q -0.48734,0.64974 -0.48734,1.38069 0,0.28423 0.0809,0.52789 l -0.24366,0.12125 q 0,2.27413 -0.16237,2.31472 l 0.40606,1.13705 q -0.12126,0.16243 -0.12126,1.09646 l 0,1.21823 q -0.0404,0.20307 -0.12124,0.24367 l 0,1.09643 0.24365,0.0404 -0.40606,0.93393 0.16237,0.24369 -0.32489,1.21822 0.16247,0.64979 0,2.27409 -0.48734,0.85281 0.48734,0.60911 -1.05586,0.40605 q -0.12125,0.20312 -0.12125,0.93407 0,0.73095 0.28425,0.73095 0,1.34005 -0.16238,3.89842 -0.16242,2.59897 0,3.97964 l -0.24366,0.0404 0,1.3401 0.24366,0.12125 -0.24366,0.24369 0.24366,0.16239 q 0,0.69034 -0.24366,0.69034 l 0.40607,0.64978 q -0.12124,0.0404 -0.12124,0.24366 0,0.16238 0.12124,0.24362 l -0.16239,0.97463 q -0.36547,0.0404 -0.36547,0.64974 l -0.0404,0.60913 q 0.28422,0.73095 0.16237,2.27409 l -0.93398,0 q 0.12125,-1.09643 -1.13707,-2.55833 -0.0809,-0.44671 0.16245,-1.05583 l -0.44672,-1.38071 -0.44671,0 q -1.21825,-1.9086 -1.13701,-3.00506 -1.34011,-0.93403 -1.86804,-2.76142 0.0404,-0.0404 0.0404,-0.12125 0,-0.32489 -0.93398,-1.74621 l 0.20303,-0.52787 q -0.93399,-1.62438 -1.17768,-3.69538 l -0.40608,-0.36548 0.16242,-0.24369 q -0.73095,-0.93401 -1.86803,-3.41115 -1.50249,-3.45173 -1.66498,-3.73598 -0.89335,2.55835 -0.89335,4.99483 0.0809,0.16246 0.20303,1.05586 0.0808,0.69035 -0.20303,0.69035 l 0.4061,0.81215 q -0.0809,0.20311 -0.0404,0.60915 0,0.44669 0.0404,0.44669 l -0.4061,1.17765 0.32486,0.16246 -0.32486,0.24362 q 0,1.74618 0.32486,1.86802 l -0.73093,1.21827 0.24362,0.24364 -0.40611,0.56853 0,0.934 -0.24362,0.0404 0.24362,0.28425 -0.24362,0.20303 0,1.21825 0.24362,0.0404 -0.40603,1.13703 0,3.16749 -0.4061,2.07109 -0.89341,0.32484 -0.32487,1.01521 0.16245,0.20305 q 0,1.09644 -2.03047,5.60402 0.24362,0.16241 0.24362,0.64972 0,0.28431 -0.0404,0.52793 -0.0404,0.28426 -0.0809,0.32483 -0.40606,0 -0.40606,-0.69031 0,-0.24362 0.12125,-0.24362 -0.20304,-0.44675 -0.20304,-2.03049 0,-2.43651 0.48729,-6.86287 l -0.28425,-0.24367 0.28425,-0.28426 -0.28425,-0.16237 0,-1.01522 -0.40609,-0.69035 q -0.52789,0 -1.29949,-0.40611 l -0.24362,1.2995 0.24362,0.20305 q -0.64972,1.01523 -0.64972,2.63958 l -0.52794,0.16239 q -0.44666,-0.44669 -0.44666,-1.4619 0,-1.09643 0.64973,-1.2183 l -0.36548,-0.64971 q 0.24364,0 0.24364,-0.16241 0,-0.24363 -0.40611,-0.93401 -0.40607,-0.69031 -0.48726,-0.85281 l 0.24363,-0.28423 -0.40611,-0.64972 0.16246,-0.20306 -0.44673,-0.89336 q 0.24364,0 0.24364,-0.32491 -0.0807,-0.20305 -0.24364,-0.16238 l 0.44673,-1.09643 q -0.16246,-0.0809 -0.16246,-6.13192 l 0,-1.3401 0.40611,-0.56854 -0.24363,-0.16241 0,-1.9492 0.24363,-0.12125 -0.24363,-0.20305 0.24363,-0.24366 -0.24363,-1.21824 0.24363,-0.36547 -0.24363,-0.20305 q 0.0809,-0.77157 -0.0404,-2.27413 -0.12126,-1.50249 -0.12126,-2.23346 l -0.28422,-0.0404 0.28422,-0.20306 q -0.0404,-0.16237 0.0404,-0.89337 0.0809,-0.52792 -0.0404,-0.60915 l 0.56851,-0.85277 -0.16236,-0.28429 0.16236,-0.85276 0.40612,0.32484 0.20307,-1.05581 -0.20307,-0.60914 0.20307,-0.16241 -0.60919,-0.56851 0.24369,-0.24362 -0.40609,-0.85282 q 0.12125,-0.0809 0.0809,-0.60911 -0.0809,-0.52796 -0.0809,-0.93406 0.28427,-2.15224 0.16238,-3.0862 -0.16238,-0.28428 0,-0.60911 0.24369,-0.44675 -0.16238,-1.01527 0.16238,0.24368 0.28427,0.24368 0.20305,0 0.20305,-0.36549 -0.0809,-0.16241 -0.48732,-0.56854 l 0.0809,-0.28422 0,0.28422 q 0.0404,0.0404 0.0809,0.0404 0.60917,0 0.60917,-3.28931 l 0,-2.55833 -0.36548,-1.05585 q 0.24364,0 0.12124,-0.28425 -0.0404,-0.12137 -0.0404,-0.20307 0,-0.12137 0.0809,-0.16239 l -0.4064,-0.56842 q 0.2031,0.12124 0.2031,-0.20302 0,-0.16242 -0.2031,-0.16242 -0.0404,-0.24364 -0.0404,-0.52788 0,-0.73096 0.44667,-1.62436 l 0.89338,-0.12125 q -0.0809,-0.73096 1.62434,-2.59897 1.74617,-1.86799 2.51778,-1.9898 l 0.81215,0.28426 q 0.0404,-0.24366 0.24366,-0.24366 0.1624,0 0.44671,0.24366 l 0.1624,0.93398 -0.1624,0.24368 q 0,0.52788 1.17763,3.2487 0.97461,2.35532 1.50253,3.45175 l -0.24363,0.28425 q 0.36546,1.78679 2.15226,5.11674 2.27409,4.18269 2.6802,5.27913 l 0,-0.81222 q -0.16247,0.0809 -0.16247,0 l 0.0809,-0.12136 q 0.0809,-0.16237 0.0809,-0.20304 l -0.16247,-0.24366 0,-2.03042 q -0.28425,0 -0.16239,-0.81219 0.16239,-1.34009 0.16239,-1.01521 l -0.28425,-0.0809 0,-3.28931 0.28425,-0.0404 -0.28425,-0.24366 0,-1.78676 0.28425,-0.0809 0,-0.85281 q 0,-0.20303 -0.16239,-1.54312 -0.12124,-0.85279 0.16239,-0.8934 0,-0.60914 0.12124,-2.27406 0.12125,-1.38072 0.0404,-2.2335 0.77153,-0.0404 1.70552,-1.58376 l 0.97461,0.81219 0.81217,-0.40609 q 0.64974,-0.81218 0.48731,-1.82738 l 1.13707,-0.60914 0.32483,0.20304 0.97463,-0.20304 0.16242,-1.09643 1.42131,-0.56855 0.32485,0.16246 0,1.46191 0.24362,0.0404 -0.24362,0.20302 0.24362,0.16244 0,5.27917 0.16246,0.36548 z m -9.05577,16.16228 -0.12125,0 q 0.0404,0.0809 0.0404,0.0809 0.0404,0 0.0809,-0.0809 z m -6.78164,1.86791 q -0.12126,0.20313 -0.12126,0.36554 0.12126,-0.16237 0.12126,-0.36554 z m 6.01007,6.01015 -0.36549,-0.24367 0,0.36551 q 0.24369,0.0404 0.24369,0.40608 l 0.12123,-0.52792 z m -4.5888,0.56854 q -0.0809,0.20304 -0.0809,0.36551 0.0809,-0.12138 0.0809,-0.36551 z m 11.16744,24.16223 q -0.16242,-0.12126 -0.16242,-0.28427 0,-0.24367 0.16242,-0.36548 l -0.52792,-0.40611 q -0.12126,0.85276 0.16242,1.3401 l 0.36547,-0.28424 z m -15.47196,2.11163 q -0.0808,0.12137 -0.0808,0.52794 0.0808,-0.20307 0.0808,-0.52794 z" />
    <path
       inkscape:connector-curvature="0"
       id="path4413"
       style="font-style:normal;font-variant:normal;font-weight:normal;font-stretch:normal;font-size:medium;line-height:125%;font-family:'Monsters Attack!';-inkscape-font-specification:'Monsters Attack!';letter-spacing:0px;word-spacing:0px;fill:#ffffff;fill-opacity:1;stroke:none;stroke-width:1px;stroke-linecap:butt;stroke-linejoin:miter;stroke-opacity:1"
       d="m 180.41696,863.50875 -0.89339,0.40608 q 0.12124,0 0.12124,0.64972 0.0404,0.60911 0.24365,0.81219 l -0.36546,0.8528 q 0.24366,0.0809 0.24366,0.28426 0,0.36546 -0.64973,1.21823 l -0.3249,0.8934 0.16243,0.12125 -0.52794,0.60914 -0.16237,-0.16239 -0.60917,0.81215 0.20306,0.20305 q 0.12124,1.13707 -1.13707,2.2335 0.20307,0.0809 0.20307,1.98982 l 0.3249,0.60915 -0.16246,0.0809 0.56855,0.89343 -0.0404,0.81215 -0.40611,0 q -0.0809,-0.64973 -1.4619,-2.55834 -1.3401,-1.90861 -1.90861,-2.15225 -2.55835,-5.07614 -3.61418,-5.07614 -0.28426,0 -0.28426,0.69035 l -0.24367,-0.16238 -0.69036,1.05581 0.16247,0.12138 -1.50252,3.12687 0.73093,2.31472 -0.20307,0.20299 1.13705,1.665 -0.16238,0.20302 0.77156,1.13706 -0.24366,0.24368 0.56855,0.52788 -0.16245,0.16244 q 0.28428,0.69032 4.71062,6.37555 3.57358,4.50758 3.20811,6.25376 l 0.77155,1.34011 -0.20303,0.20301 0.77159,1.8274 q -0.12126,0.0809 0,2.80201 0.16236,3.89848 0.16236,2.88322 0,-0.40611 -0.20303,0.97462 -0.16242,0.73096 0.20303,0.97459 -0.93398,1.82738 -0.73096,2.63961 -0.40608,0.36547 -0.32484,0.40606 -0.12126,0 -0.20303,-0.0809 l -0.4061,1.4619 -0.60911,-0.85277 q -0.12125,0 -0.20308,0.2843 -0.0809,0.2842 -0.32488,0.2436 l -0.16239,1.01519 0.48728,1.0559 0.97462,0.60913 -0.16241,0.16236 q 0,-0.12125 0.12126,1.05584 0.0404,0.52791 -0.32489,1.05582 0.0809,0.0404 0.0809,0.0809 -0.0809,0.12138 -0.12124,0.20306 l -0.16247,-0.20306 -0.36548,0.77153 0.16245,0.2437 -0.69036,1.13703 0.16237,0.20303 -1.21825,1.74617 q -0.0404,0.16245 0.0809,0.28429 0.12123,0.0809 0.12123,0.12125 l -0.12123,0.20302 q -0.12126,0.20303 0.12123,0.24367 l -1.29948,1.4619 -0.32488,-0.16241 q -0.89336,1.21829 -3.08622,3.61417 l -0.32488,0 q 0.0404,0.0809 0.0809,0.12137 0.0404,-0.0809 0.0404,-0.48729 0,-0.28428 -0.52787,-0.40609 l -2.0711,1.09644 0.44671,0.81217 -0.44671,0.48732 -1.54311,-0.69037 -0.32488,-0.81218 q -1.98981,-1.34005 -7.3502,-7.22832 l 0.20306,-0.20308 -0.85281,-1.21821 q 0.20308,0 0.24369,-0.12137 -0.24369,-0.20306 -0.44669,-0.48733 0.0809,-0.0809 0.203,-0.0809 -0.48726,-1.17762 -0.6091,-1.4619 -0.48734,-0.85276 -1.01521,-1.13706 l 0.20303,-0.20305 -0.52792,-1.09643 q 0.28429,0 0.28429,-0.1624 0,-0.2437 -0.28429,-0.60917 l 0.32489,-0.73095 0.20303,-0.24363 q 0.0809,-0.52793 0.16241,-0.97461 l -0.36547,-0.77155 0.20303,-0.24366 -0.36548,-1.3401 0.69033,-1.13704 q -0.12126,-0.0404 -0.12126,-0.20304 0,-0.20306 0.12126,-0.28425 l -0.32485,-0.85276 0.32485,-0.48734 0.77159,0.36549 0,-0.8934 -0.12125,-0.20304 q 0.0404,-0.16241 0.0404,-0.28424 0,-0.16246 -0.0809,-0.20307 l 0.73093,-1.38071 0.12125,0.16242 1.09645,-0.85281 0.89344,0.48733 -0.24369,0.20301 q 0.48729,0.97465 1.7868,2.599 -0.0809,0 -0.0404,0.48732 0.0404,0.44666 -0.12124,0.44666 l 0.52791,0.89339 q 0.0809,0.28426 -0.16242,0.85282 l 0.81218,1.50249 q 0.0809,0.0809 0.16237,0.0809 -0.20302,0 0.28431,-1.17769 0.48729,1.05587 1.868,2.68018 l -0.1624,0.16241 1.05582,2.07101 0.73094,0.16246 0.77159,-0.64977 0.16241,-0.24369 q 0,-0.0809 -0.0809,-0.2842 -0.0809,-0.24363 -0.0809,-0.32489 l 0.16241,0.16241 0.28426,0 0.73095,-1.70557 -0.20307,-0.16242 q 0.44671,-1.09643 1.42132,-3.24865 l -0.36548,-0.7716 0.16243,-0.44667 -0.69037,-0.93407 0.36549,-1.09643 q -0.16243,-0.0809 -0.16243,-0.32484 0,-0.1624 0.16243,-0.20303 l -0.52794,-1.01521 0.16243,-0.16243 q 0,-0.73094 -4.58879,-6.94408 l -5.68521,-7.67495 q 0.0809,-0.0404 0.0809,-0.2437 0,-0.20299 -0.0809,-0.20299 l 0.48732,-0.77158 -1.34014,-1.74615 0.20307,-0.16244 -1.0558,-1.82738 0.16239,-0.16242 -0.40613,-0.77157 q 0.24371,-0.0404 0.16246,-0.20307 l -0.16246,-0.32483 0.24371,-1.34009 -0.24371,-0.16243 0.16246,-0.28425 q 0.0809,-0.16238 -0.16246,-0.24365 l 0.60919,-1.62434 -0.20306,-0.12124 q 0.20306,-0.12138 0.36546,-0.4061 -0.0404,-0.0404 -0.16237,-0.0404 l 0.48725,-1.29947 -0.16238,-0.16239 q 0.89336,-2.68017 1.86802,-3.65479 l 0,-0.48731 0.89337,-0.73094 -0.20302,-0.12126 q 0.60913,-0.6091 1.46194,-1.62433 l -0.24371,-0.20305 0.77158,-0.93399 -0.16236,-0.20307 q 2.8426,-2.11167 4.10146,-3.97962 l -0.16239,-0.36547 0.40607,-0.73097 0.36548,0.1624 0.73095,-0.32487 0.32488,0.16242 0.16241,-0.7716 -0.89339,-1.13703 q -0.12126,-0.16238 0,-0.4873 l 0.36548,0.16241 0,-0.32486 q 1.50251,0.1624 2.31472,0.85279 l 1.70552,-0.69036 q 0.0404,0.28427 0.81219,0.40611 l 0.69037,0.12138 0.1624,-0.16242 0.36548,0.16242 q 0.0404,-0.0809 0.0809,-0.16242 l 1.09645,0.52792 q 0.0404,0.4467 -0.20303,1.09642 1.66495,1.46192 3.04565,3.0863 l -0.1624,0.16239 0.56849,0.52793 q -0.0404,0.16241 0.16242,0.56849 l 0.20301,0.36548 -0.20301,0.0404 q 0.12124,0.12125 0.36547,0.52794 l 0.40611,0.69036 -0.24366,0.48728 1.29948,0.64978 z m -14.33488,44.91326 0,-0.28422 q -0.12126,0 -0.1624,-0.16242 l -0.28429,0 0,0.44667 0.44669,0 z" />
    <path
       inkscape:connector-curvature="0"
       id="path4415"
       style="font-style:normal;font-weight:normal;font-size:medium;line-height:125%;font-family:sans-serif;letter-spacing:-5.94000006px;word-spacing:0px;fill:#ffffff;fill-opacity:1;stroke:none;stroke-width:1px;stroke-linecap:butt;stroke-linejoin:miter;stroke-opacity:1"
       d="m 182.93469,871.38686 q -0.0404,0.0809 -0.0809,0.24364 0,-0.16243 0.0809,-0.24364 z m 18.19277,-10.07098 0.16241,0 -0.16241,0 z m 27.04538,-0.73097 q -0.69032,1.21826 -3.20806,2.15226 l 0.28424,0.4061 -0.28424,-0.32488 -0.52789,0 0,0.52787 -2.59898,0.93404 -1.86802,0.20303 0,1.05581 1.46192,-0.203 -4.10144,1.98983 -0.2843,-0.20307 -0.64977,0.4061 -0.20297,-0.20303 -1.94926,0.73095 -0.20301,-0.20306 q -0.12124,0.20306 -0.44672,0.60914 l -0.20304,-0.20305 -2.39594,0.93403 q 0,-0.20306 -0.12126,-0.20306 -0.0809,0 -0.36547,0.20306 -0.24363,0.20305 -0.32486,0.20305 -0.12137,-0.0404 -0.20298,-0.20305 l -1.86803,0.73097 -0.16247,-0.20308 q -0.44666,0.20308 -2.5177,0.52792 -1.8274,0.28427 -1.8274,0.52791 0.0809,0.12125 0.20305,0.28422 l -1.9492,0 q -0.24367,0.56858 -0.89344,0.56858 l -0.69032,0 -0.24364,1.29946 -0.56852,0 q 0.16241,1.09642 -0.12124,3.2081 -0.24369,2.11165 -0.24369,3.08626 l -0.36549,0.40607 q -0.12124,1.665 -0.12124,3.45175 0,1.74621 0.12124,3.53295 -0.85277,2.88323 -0.64974,4.18271 l -0.24362,0.16242 0.24362,0.16244 -0.24362,1.82741 q -0.2843,0.97458 -0.69038,1.58372 0.0809,0.0404 0.0809,0.28425 0,0.20304 -0.0404,0.56852 -0.0809,0.89338 0.16242,1.09642 l -0.64971,2.51771 0.12123,0.2437 -0.60914,2.19286 -0.52794,0.69039 0.2031,0.12124 -0.40611,0.85277 0.52796,1.42127 0.40603,0 0,-1.34005 0.4061,0 -0.12123,0.20303 q 0.12123,1.38069 -0.48734,2.92384 l 0.20305,0.20306 q -0.44666,0.93395 -1.13699,2.92383 l 0,2.84259 -0.32493,0.0809 q 0.0404,0.44675 0.0404,0.89341 0,1.34009 -0.44666,2.63957 0.20298,0 0.20298,0.81216 0,4.10149 -1.13705,7.02531 0.24366,0.20305 0.40612,3.12689 l -0.60912,1.82739 q 0.1624,0 0.1624,0.12137 0,0.16246 -0.36548,0.73095 -0.36549,0.60918 -0.32491,0.64974 l -0.64969,-0.73096 0.32484,-0.32483 -0.52792,-1.3807 0.52792,-1.34009 q -0.24362,0 -0.20301,-0.32487 0,-0.28428 0.20301,-0.20308 l -0.52792,-1.01518 0.20308,-0.20307 q -0.24365,-0.81214 -1.54317,-2.72077 -1.17763,-1.70557 -1.25886,-2.84261 0.28429,0 0.20305,-0.28427 0,-0.32489 -0.20305,-0.24363 l -0.73095,-2.07106 q -0.24367,0.12138 -0.24367,0.44672 0,0.28424 0.24367,0.73094 0,0.20302 -0.1624,0.56852 -0.16243,0.36547 -0.16243,0.56851 l 0.32486,0.12137 -0.52789,0.73094 0.20303,0.36549 -1.3401,2.3147 -0.60909,-1.05584 0.16237,-0.1624 -0.40607,-0.73095 q -0.28431,-1.09644 -0.28431,-2.31473 0,-0.64974 0.0809,-1.34008 -0.32489,0.16241 -0.32489,-0.73096 l 0.32489,-0.24366 -0.32489,-0.28425 -0.20305,-5.84766 0.52794,-1.13704 q -0.20307,-0.12125 -0.20307,-0.40609 0,-0.0809 0.0404,-0.28431 0.0808,-0.24362 0.0808,-0.36546 0,-0.203 -0.24362,-0.203 l 0.52792,-1.66497 0,-2.84262 q 0,-0.64973 0.28426,-2.39592 0.24367,-1.50247 0.12125,-2.39592 l 0.32487,-0.0809 -0.32487,-0.20306 0.52794,-1.01521 -0.20307,-0.16242 0.40608,-0.93399 -0.20301,-0.36548 q 0.28424,-0.32486 0.44672,-1.58374 0.16235,-1.29946 0.48727,-1.66496 0.2437,-0.20303 0.2437,-1.25887 l 0,-1.38069 -0.73097,-0.73097 0.28421,-0.56854 q -0.0809,-1.0152 0.24362,-3.4111 0.32493,-2.59897 0.73096,-3.1675 l -0.36546,-0.2436 0.52795,-1.2183 q -0.16247,0 -0.16247,-0.12125 0,-0.12124 0.20311,-0.44672 0.203,-0.36549 0.203,-0.4873 -0.0404,-0.12138 -0.24364,-0.12138 l 0.44668,-1.34005 -0.20304,-0.32485 q 0.60915,-1.05583 0.60915,-2.39594 0,-0.60914 -0.12125,-1.25885 -0.20304,0 -1.09645,0.0404 -0.28429,0.0809 -0.4467,0.0809 -0.24362,0 -0.28424,-0.12123 l -2.72084,0.97457 q 0,-0.32488 -0.20298,-0.32488 -0.0404,0 -0.28432,0.20308 -0.24366,0.20304 -0.36547,0.12124 l -1.46191,-1.25887 -0.20302,-0.934 0.73094,-0.32487 0.73097,-1.78677 -0.32489,-0.28428 0.52791,0.12125 0.20308,-0.89335 q -0.20308,-0.16242 -1.05584,-2.27409 -0.0809,0 -0.0809,0.0404 l -0.52792,-1.17767 q -0.0809,-0.20301 0,-0.32483 l 0.32489,0.24361 q 0.20303,0.20306 0.36547,0.20306 0.0809,0 0.12125,-0.0404 0.0809,-0.0809 0.0809,-1.05586 0.0404,-1.01518 0.36549,-0.89337 l -0.73097,-1.25887 q 0.32485,0.0809 0.73097,0.0809 0.4467,0 1.0152,-0.0809 l 0.85281,0.40608 0.24364,-0.28427 0.36547,0.28427 0.52793,-0.12126 q 0.52791,-0.0809 0.52791,0.12126 l 1.54309,-0.40608 q 0,0.12125 0.16246,0.12125 0.20299,-0.0809 1.62434,-0.56851 l 0,-0.40609 0.24367,-0.0809 -0.24367,-0.28424 0.24367,-0.32485 -0.24367,-0.20309 0.24367,-0.24362 0,-0.93399 q 0.16235,-0.12123 0.20299,-0.28432 -0.0404,-0.12124 -0.0404,-0.24361 0,-0.0809 0.12125,-0.0809 l 0,-1.17767 0.32487,-0.0809 0,-1.54314 0.12125,-0.0404 0,-1.2589 -0.44673,-0.36549 q -0.0809,-0.32485 -0.0809,-0.56849 0,-0.60911 0.4061,-0.934 1.01522,-0.40608 2.51771,-1.54314 l 0,-0.81217 0.81222,-0.44671 q 0.12125,0.4061 0.32485,0.4061 0.0809,-0.0404 0.12125,-0.0809 l 0,-0.32488 q 0.4061,0 0.6091,0.32488 0.64979,-1.62434 2.35538,-1.62434 0.32483,0 0.64967,0.0404 -0.20304,-0.32488 0.93402,-0.32488 l 0.44666,-0.20304 0.73096,0.52792 -0.24361,0.24366 0,0.93398 q 0.12124,-0.0404 0.24361,0.81217 l -0.73096,1.05586 0,1.34011 q 0,0.52787 -0.20297,0.64973 l -0.12126,0.16237 0,0.89343 -0.24364,0.16238 0,2.07106 -0.28429,0.16238 0,1.21828 q -0.12125,0.28425 -0.12125,0.60914 0.0404,0.64974 0.12125,0.77154 l -0.5279,0.81219 q 0.40609,0.12125 0.24364,0.44671 -0.0404,0.12124 -0.12124,0.20301 l 1.7868,-0.20301 q 0.0404,0.0404 2.03038,0.1624 1.58376,0.0809 1.82738,-0.1624 l 1.01525,0.4061 q 0.40611,-0.4061 3.77658,-0.4061 l 0.16246,-0.32486 0.32485,0.32486 0.12124,-0.32486 0.2843,0.32486 0.203,-0.32486 1.70559,0 0.52791,-0.4061 0.20306,0.28425 q 2.1929,-0.93399 3.53296,-1.01521 l 0.934,0.5685 0.20304,-0.36548 q 0.0404,0 0.20306,0.20307 0.20306,0.16239 0.32485,0.16239 l 0.4061,-0.36549 q 0.0404,0 0.24368,0.20307 0.24362,0.16237 0.28422,0.16237 l 0.44673,-0.36547 0.16239,0.36547 0.24365,-0.36547 2.47713,0 0,0.93404 q 0.52789,0.40606 1.38069,0.40606 1.4619,0 3.2081,-0.97463 0.40607,0.36548 0.64976,0.36548 0.12124,-0.0404 0.16236,-0.20301 z m -11.20794,1.82739 0,-0.4061 -0.44674,0 q -0.0809,0.12125 -0.20306,0.60911 0.20306,-0.20301 0.6498,-0.20301 z m -21.07597,42.11125 q -0.0809,0.12125 -0.0809,0.20311 0.0809,-0.0809 0.0809,-0.20311 z m 0.20301,0.32489 -0.0809,0 q 0.0809,0.0404 0.0809,0 z m -8.4466,-14.82218 q -0.0809,0.0404 -0.0809,0 l 0.0809,0 z" />
    <path
       inkscape:connector-curvature="0"
       id="path4417"
       style="font-style:normal;font-weight:normal;font-size:medium;line-height:125%;font-family:sans-serif;letter-spacing:-5.94000006px;word-spacing:0px;fill:#ffffff;fill-opacity:1;stroke:none;stroke-width:1px;stroke-linecap:butt;stroke-linejoin:miter;stroke-opacity:1"
       d="m 242.68466,888.78702 -0.35887,0.57422 -0.46654,0 q -0.32303,-0.10727 -0.21535,-0.46656 l 0.57423,-0.64597 0.28707,0 0.17946,0.53831 z m 3.69658,19.20057 q 0,0.78959 -1.50733,2.3687 l -0.64602,0 -0.53832,1.8662 q -0.35889,1.29197 -0.82544,1.57911 l 0.21536,0.2512 q -0.14364,-0.0357 -0.57429,0.3589 -0.0357,0.35893 0.17946,0.57426 l -0.71776,0.46653 0.14359,0.10726 -0.93309,0.61014 0.21536,0.25121 -0.7896,0.57422 -0.28712,-0.21529 -0.71778,1.00488 -0.21527,-0.21535 -0.93318,0.93311 -0.39476,-0.17945 q -0.10726,0.0714 -0.35886,0.68189 l -0.32298,0 -0.0357,-0.21531 -0.43069,0.17943 0.21534,0.0713 -1.04079,0.6819 -0.17943,-0.14343 -1.14842,0.57422 q 0,-0.17945 -0.14366,-0.10726 -0.32299,0.14348 -0.71776,0.14348 -0.2512,0 -0.64598,-0.0357 -0.39479,-0.0714 -0.64605,0.17942 l 0.64605,0.71777 -1.07665,0.78957 -0.14363,-0.21532 q -0.10728,0.2512 -0.3948,0.57421 l -0.17944,-0.21529 -1.93805,1.25602 q -0.0357,-0.10726 -0.10727,-0.10726 -0.10726,0 -0.21531,0.0357 -0.28714,0.10727 -0.35887,-0.10726 l -0.86132,0.5742 q -0.10727,-0.21535 -0.25125,-0.21535 -0.17941,0 -0.61011,0.25126 -0.43066,0.21531 -0.53833,0.21531 -0.21532,0 -0.21532,-0.25122 l -1.32791,0.25122 0.25125,0.32303 -0.4666,-0.43068 -0.93309,0.43068 -0.25121,-0.21532 -0.71781,0.50245 0.17947,0.17942 q 0,0.17944 -0.17947,0.25118 l -0.57417,-0.57417 q -0.21535,0.14347 -0.35893,0.46654 l 0.35893,0.93309 q 0,0.39479 -0.0716,1.18432 l -1.04079,-1.25608 0.32301,-0.35888 -1.83034,-1.72267 0.17943,-0.21536 q -1.25609,-1.29198 -1.43555,-2.11744 l -0.28713,0.14361 0.21535,-0.14361 -0.50244,-0.75367 q -0.0715,0.14348 -0.2512,0.14348 -0.17949,0 -0.64608,-0.17941 -0.46648,-0.17946 -0.71774,-0.17946 l -0.8972,0.46652 q -0.0715,-0.0713 -0.10726,-0.0713 l -1.61499,-0.39474 0.32298,-0.35892 q -0.93307,-0.46654 -2.79932,-1.14841 -0.0715,-0.57428 0.21531,-1.3279 l -0.9331,-0.68187 -0.17945,0.21529 q -0.68192,-0.46658 -1.36375,-0.9331 -0.93313,-0.646 -0.8255,-1.11255 0.17946,-0.53835 0.17946,-2.08156 l -0.17946,-0.14347 0.35891,-0.21537 q 0.21536,-0.39475 0.28715,-1.00488 0.0357,-0.5742 -0.0716,-0.64598 l 1.61495,-0.71779 q -0.17943,0 -0.21531,-0.25119 -0.0716,-0.25126 0,-0.35891 l 0.21531,0.14347 q 0.32301,-0.28707 0.43073,-0.28707 0.10727,0.0357 0.10727,0.14343 l 1.50733,0 q -0.14348,-0.10728 -0.14348,-0.35889 0,-0.25124 0.14348,-0.3589 l -0.57423,-1.2202 0.2153,-0.25126 -0.35887,-1.1843 -0.43064,0.14342 q 0,-0.32297 0.21529,-0.57421 l -0.75363,-1.11257 q 0.14343,-0.10728 0.14343,-0.35888 -0.0716,-0.35887 -0.32298,-1.14846 -0.0713,-0.32297 0,-1.65087 0.10728,-1.39963 0.10728,-2.29685 0,-1.3638 -0.28713,-1.3638 l 0,-1.0049 -0.21532,-0.32297 0.39475,-0.21534 0,-1.11253 q 0.21538,-0.39481 0.21538,-0.53838 0,-0.0714 -0.0357,-0.0714 l 0.75364,-1.86619 0.35892,0.323 0.43066,-0.93312 q -0.0716,-0.25125 -0.35886,-0.32303 l -0.21537,0.10726 q -0.89717,-0.25123 -1.79443,-1.32794 l 0.2512,-0.1794 -0.2512,-0.17945 0.2512,-0.43069 -0.46658,-0.0357 0.46658,0 1.32788,-1.90209 -0.35883,-0.2153 q 0.17945,-0.14365 0.35883,-0.39483 l 0,-0.35892 -0.21529,-0.17936 0.28708,-0.14368 q 0.25126,-0.14343 0.14345,-0.32297 l 0,-5.16801 0.14366,-0.53834 q 0.14342,0.32301 0.57421,0.4666 0.14343,0 0.10726,-0.28715 -0.0715,-0.32299 -0.10726,-0.46654 l 0.21536,-0.21534 -0.21536,-0.14346 1.18434,-1.04079 q 0,0.25125 0.25123,0.25125 0.14342,0 0.35889,-0.0357 l 0,-0.93311 q -0.1435,-0.0714 -0.10726,-0.57423 0.10726,-0.969 0.10726,-0.6101 l -0.1435,-0.46657 q 0.21536,-2.04566 0.57428,-4.23488 l -1.97394,-1.61502 -0.2512,0.17944 q -0.0357,-0.0713 -0.0713,-0.14347 0,-0.10726 0.10727,-0.32298 0.10726,-0.2512 0.10726,-0.28714 0,-0.17942 -0.14344,-0.21531 l 1.22024,-1.50734 q -0.10726,0.46656 0.21531,0.46656 0.25123,0 0.25123,-0.17946 0,-0.17946 -0.0357,-0.2871 l 1.65093,-0.35888 0.17942,0.17943 0.21536,-0.3589 q 0.10727,-0.0713 0.17943,-0.0713 0.10726,0 0.21534,0.0713 0.10727,0.0357 0.28711,0.14361 0.14346,0 0.25122,-0.35884 l 1.2202,0.39475 q 1.65092,-0.25124 3.98369,-0.75367 0.0357,0.17946 0.86131,0.10727 l 1.04079,-0.10727 q 0.21537,-0.0713 1.43556,0.21532 l 0.10726,-0.21532 -0.21533,-0.35887 0.25124,0 0.17944,0.35887 q 0.39477,-0.10727 1.14847,-0.21531 l 0.32297,-0.14349 0.14346,0.3589 0.21535,-0.3589 0.5742,0.71779 q -0.0357,-0.28713 0.75368,-0.35889 l 2.72752,-0.21532 q 0.0357,0 0.17944,0.21532 0.14365,0.21529 0.25128,0.21529 0.57416,0 0.57416,-0.43061 l 0.82547,0.43061 0.17942,-0.43061 0.78958,0.14341 q 1.0049,0.21535 1.18433,0.21535 0.6101,0 0.50245,-0.35887 l 0.82545,0.57422 0.35891,-0.35889 q 2.08151,-0.0357 6.17286,-0.57424 0.21535,-0.0357 0.35891,-0.0357 0.35888,0 0.96899,0.61013 l 0.35888,-0.21532 0.21536,0.82542 q -0.21536,0.21534 -0.10728,0.78955 0.0712,0.61011 0.25125,0.61011 l -0.89725,0.71775 q -0.0715,0.10727 -0.0715,0.21536 0,0.0714 0.0715,0.0714 0.0716,0 0.17945,-0.0357 l 0.17945,-0.0357 0,0.28709 -1.79445,0.93314 0,0.57418 -0.32298,-0.21528 q -0.57425,1.14845 -1.3997,2.00976 l -0.1436,-0.21531 q -0.82545,0.57422 -0.78959,0.78953 l -1.2202,0.46659 q -0.0357,0.0357 -0.0357,0.14343 0,0.10727 0.17942,0.21529 l 0.21536,0.10726 q -0.14364,-0.0716 -0.35889,-0.17942 0.2512,0 -0.86135,0.57419 -0.2871,0.0357 -0.89722,0.3948 l -0.61012,0.323 q -0.10727,-0.0357 -0.14359,-0.14343 l -1.14846,0.82545 q -0.0357,-0.0716 -0.21532,-0.0716 -0.28713,0 -0.53834,0.0716 -0.6101,0.10727 -0.78956,0.17945 -0.32298,0.35891 -0.4666,0.39478 -0.0712,-0.0713 -0.10726,-0.17948 l -3.48121,1.86627 -0.21534,-0.14368 -1.4355,0.71781 -0.25125,-0.17942 -1.68677,0.5742 q -0.0715,0.50245 -0.4666,0.61013 -0.35887,0.10728 -0.57421,-0.14362 l -0.86131,0.71776 0.17942,0.14351 -0.35884,0.57413 0.17942,0.21541 -0.57425,1.93799 1.22026,1.14842 q 0.39473,0.0357 1.07664,-0.0716 0.71779,-0.14349 1.00489,-0.14349 0.0716,0 0.32301,0.21536 0.25124,0.21537 0.32298,0.21537 l 0.21536,-0.43073 0.86131,-0.14341 q 0.10727,0.14341 0.32301,0.14341 0.46654,0 0.969,-0.68187 0.10727,-0.0357 0.43067,0.14346 0.32301,0.1436 0.39477,0.1436 0.25123,0 0.32301,-0.28711 l 1.22024,0 0.10727,0.32303 1.04074,0 0.14348,-0.2153 q 0.14363,-0.17947 0.35887,-0.10727 l 0.6819,0.68192 q 0,-0.14359 0.0716,-0.14359 0.35887,0 0.35887,0.28709 0,0.1794 -0.17946,0.28713 l 0.86136,0.14342 q 0.32298,-0.25126 0.50246,-0.25126 0.21529,0 0.32297,0.25126 l 0.96898,-0.57423 0.35893,0.21532 1.00488,-0.57421 0.17945,0.21536 q 0.43066,-0.78957 1.36378,-1.25618 0,0.14353 0.0716,0.17946 0.17942,0 0.32298,-0.17946 0.10727,-0.0357 0.17946,-0.0357 0.10727,0 0.14344,0.25118 0,0.43072 -0.43067,1.25615 l 0.21537,0.14344 -0.43068,0.21536 q 0.21531,0.1436 0.21531,0.43067 -0.25124,-0.0357 -0.57422,0 l 0.21534,0.32298 -0.50247,1.07667 0.28713,0.32301 -0.86132,0.50243 q 0.14363,0.14348 0.10727,1.14848 0,0.96897 0.2153,0.96897 0.50246,-0.43065 1.32792,-0.7178 0.21529,0.0357 0.10727,0.25127 -0.10727,0.28706 -0.10727,0.35885 0,0.0357 0.17943,0.25124 0.17944,0.17942 0.17944,0.2512 l -0.21535,0.35892 -0.93311,1.47146 -0.64601,0 -0.78953,1.57905 -0.14347,-0.2153 -0.21538,0.43066 -0.28707,-0.21536 -0.64597,0.57428 -0.17946,-0.21537 -1.61504,1.32788 -0.17944,-0.17945 -0.21532,0.39479 -0.17944,-0.21534 -1.32788,1.14848 -1.43556,0.21531 -0.39478,-0.21531 -2.4405,0.93311 q -0.25114,-0.17945 -0.82541,-0.17945 l -0.17947,0.35892 -0.21531,-0.17947 -0.71775,0.64598 q -0.10726,0.0716 -0.21535,0.0716 -0.21531,0 -0.35891,-0.323 l -0.78953,0.78957 0.21533,0.17944 -0.39475,0.71778 q 0.50243,0.17942 0.50243,0.57419 0,0.14363 -0.10727,0.35893 l -0.39479,0.21528 0.39479,0.21534 -0.39479,1.22021 q 0.21534,0 0.10727,0.50245 -0.0715,0.28711 -0.10727,0.646 l 0.39479,0.35893 -0.21535,0.28708 0.21535,0.25126 -0.39479,0.10726 -0.3589,1.79448 q 0.10726,0.0357 0.10726,0.17947 0,0.25118 -0.32297,1.00488 l 0.39475,1.00489 -0.39475,0.17941 1.50731,1.29201 q 0.0357,-0.14346 1.938,-0.14346 l 2.26101,0 q 0.10727,0 0.32299,-0.17944 0.25123,-0.17945 0.35888,-0.17945 0.14345,0 0.17946,0.14348 l 1.36377,-0.35892 0.14345,0.14345 q 0.50245,0 1.36377,-0.43065 0.86137,-0.46652 1.36382,-0.46652 l 0.14358,0.1794 0.21534,-0.39474 0.21535,0.21534 0.14348,-0.35891 0.21531,0.14349 0.21531,-0.35892 q 0.28712,0 0.53836,0.21533 l 1.54324,-1.14842 q 0,0.2153 0.32297,0.10727 0.25123,-0.10727 0.21532,-0.32299 l 1.4356,-0.64602 0.46654,0.86134 -0.35888,0.14343 0.71775,0.57423 0.7178,-0.35891 0.2512,0.21534 1.90216,-1.14841 0.35885,0.17944 0,-0.46657 q 0.0716,-0.0357 0.10728,-0.0357 0.10726,0.0357 0.14343,0.32299 -0.0357,0.35887 -0.35889,0.71774 l 0.57424,0.57424 z m -2.15335,-41.20049 q -0.10726,0.10727 -0.10726,0.25122 0.10726,-0.10727 0.10726,-0.25122 z m 0.10727,3.48125 0,0 z m -3.37355,-3.33765 -0.0716,0.32297 q 0.0716,-0.17945 0.0716,-0.32297 z m -10.62314,0.43062 q -0.10726,0.10727 -0.10726,0.25124 0.0357,-0.10727 0.10726,-0.25124 z m -1.25612,11.98693 -0.10728,0 q 0.0713,0.0357 0.10728,0 z m -4.05543,6.17286 q -0.14348,-0.10726 -0.32303,-0.10726 l 0.32303,0.10726 z m 17.08312,25.62471 q 0.10727,0.14363 -0.10728,0.39477 -0.17942,0.25123 -0.35888,0.25123 l 0,-0.39476 q -0.10727,-0.0714 -0.21534,-0.0714 -0.17943,0 -0.25121,0.35893 -0.0357,0.17945 -0.0357,0.28709 0,0.10726 0.0357,0.17947 l -0.96899,0.43068 q -0.0357,-0.25129 -0.14347,-0.25129 -0.10726,0 -0.46656,0.32307 -0.35887,0.32298 -0.46654,0.28709 -0.25121,-0.10727 -0.21537,-0.35887 0.0357,-0.14349 0.10726,-0.17946 0.10726,0.0357 0.14363,0.0713 l 0,0.14346 q 0.21537,0.17946 0.46656,0.17946 0.82545,0 1.65089,-1.11256 0.2512,-0.82544 0.57424,-0.82544 0.14343,0 0.25118,0.28711 z m -11.9869,-0.78953 q -0.10726,-0.10727 -0.32298,-0.25125 l 0,0.25125 0.32298,0 z m -18.84171,-10.91025 q -0.25114,-0.0357 -0.25114,-0.21534 0,-0.10728 0.0715,-0.17944 l 0.17945,-0.10726 -0.25116,-0.21538 0,1.14847 -0.21536,0.10727 0.21536,0.53831 0.25116,-1.07663 z m 21.31802,21.13856 q -0.17941,-0.0357 -0.21531,-0.17945 l -0.46654,0 0,0.35889 -0.21536,0.10726 0.57423,0 q 0.0357,0.10728 0.10727,0.17946 0,-0.17946 0.21531,-0.46656 z m -21.1026,-18.05212 q -0.10726,0.0713 -0.10726,0.17942 0.0716,-0.0714 0.10726,-0.17942 z m 0.25123,3.40944 q 0.25121,-0.46654 0.25121,-0.89721 0,-0.25124 -0.46652,-1.11261 -0.43071,-0.89718 -0.43071,-1.29198 l 0.39479,-0.50244 q 0,-0.96896 -0.21536,-1.29193 l -0.46651,0 0.21536,0.0357 q 0,0.71775 -0.21536,1.36376 0.43065,0.64602 0.43065,1.22024 0,0.25122 -0.21529,0.21536 l 0.35881,1.00488 -0.21529,0.10726 0.57422,1.14849 z m -0.25123,3.94782 q -0.10726,0.17944 -0.10726,0.32298 l 0.10726,-0.32298 z" />
    <path
       inkscape:connector-curvature="0"
       id="path4419"
       style="font-style:normal;font-variant:normal;font-weight:normal;font-stretch:normal;font-size:medium;line-height:125%;font-family:'Monsters Attack!';-inkscape-font-specification:'Monsters Attack!';letter-spacing:0px;word-spacing:0px;fill:#ffffff;fill-opacity:1;stroke:none;stroke-width:1px;stroke-linecap:butt;stroke-linejoin:miter;stroke-opacity:1"
       d="m 287.93655,919.87369 -0.97459,-0.73093 -0.77155,0.56848 -0.89342,-0.56848 -0.28427,0.16239 -0.32485,-0.36547 q -0.20307,0.0809 -0.48733,0 l -1.09643,0.69033 q 0.16242,0.0809 0.16242,0.24367 0,0.20303 -0.0404,0.28429 -0.0809,0.32486 -0.28429,0.52788 l -2.07101,-0.97462 -0.28431,0.16242 -1.74615,-0.56852 -0.20304,0.24364 q -0.56852,-0.81219 -2.15227,-2.07103 -1.54313,-1.29951 -2.11166,-2.15228 -1.46189,-0.60913 -2.7614,-1.42128 l 0.36548,-2.51778 -1.46192,-1.09644 -0.73095,0.73097 -0.32483,-0.16239 -0.56854,0.56853 q -3.37056,-5.27914 -6.98473,-9.34004 l -0.40608,1.90863 0.16242,0.24364 q -0.16242,0.28424 -0.32488,1.13704 l -0.24366,2.76144 q -0.0404,0.16237 -0.12124,0.40605 -0.12126,0.20306 0.12124,0.32489 l -0.3655,1.21823 q 0.24369,0.12138 0.12138,0.60916 -0.12138,0.73096 -0.12138,0.56849 l 0.2031,4.58882 q 0.0404,0.16238 -0.2031,0.69032 -0.20302,0.48728 -0.20302,0.64978 0,0.24362 0.20302,0.24362 l -0.5685,1.62437 q 0.20302,0 0,1.42132 -0.24366,1.74617 -0.24366,2.59897 l -0.32485,0.28421 0,3.0863 q -0.24365,0.89336 -0.4061,1.05585 l -0.20304,-0.24371 q -0.60912,0.28428 -1.50249,1.13708 l 0.2436,0.44668 -0.16238,0.36548 q -0.0809,0.28426 0.16238,0.28426 l -0.81217,0.97462 q -0.0809,0.16237 -0.24363,0.16237 -0.28425,0 -0.4061,-0.56845 -0.0404,-0.56855 0,-0.64978 0.0404,-0.0404 0.0404,-0.16242 0,-0.36549 -0.44668,-0.8122 l 0.16239,-0.16236 0,-1.17768 -1.13704,0 q -0.12125,0.12138 -0.32491,0.12138 -0.28424,0 -0.56848,-0.28428 l 0.24365,-0.24366 q -0.12125,-0.0809 -1.01521,-1.21828 -0.48732,-0.64969 -0.48732,-1.29943 0,-0.32488 0.0809,-0.69035 l -0.89341,-0.56857 q 0.0809,-0.85276 -0.36547,-2.11163 l -0.77154,-2.03044 q 0.24364,-0.12123 0.24364,-2.9238 0,-0.69034 0.1624,-1.01527 l -0.56851,-0.85276 q 0.1624,-0.0809 0.1624,-2.72079 -0.0404,-0.24365 -0.12125,-0.36548 0.0404,-0.0809 0.12125,-0.0809 l -0.73095,-1.54311 q 0.20304,-2.03043 0.40608,-5.11674 0.16242,-2.68015 -0.0809,-2.72077 l 0.40611,-1.05582 q -0.12125,-0.0404 -0.12125,-0.16242 0,-0.20304 0.36549,-1.01517 0,-3.08631 0.64975,-4.30455 -0.28425,-0.0404 -0.28425,-0.32494 0,-0.48726 0.52787,-1.1776 l -0.24362,-0.16242 0.40606,-1.21829 -0.16241,-0.20297 0.73096,-1.86804 -0.73096,-0.8528 q 0.0809,-0.0809 0.0809,-0.24364 0,-0.16241 -0.0809,-0.16241 -0.0809,-0.89336 0.12125,-2.47714 0.20303,-1.74616 0.20303,-2.47712 l -0.16242,-0.16244 0,-0.77151 0.40612,-1.17768 q 0.0404,-0.81215 -0.24367,-1.86802 l 0.40607,-0.73094 q -0.12125,-0.0809 -0.12125,-0.64972 0,-0.56855 0.12125,-1.66499 l 0,-2.35531 q 0,-1.46194 0.56856,-2.15227 l -1.42132,-1.17761 -1.17767,0 -0.81218,-0.69042 0.24368,-0.16236 -0.24368,-1.29952 q 0.64974,-0.28423 2.68021,-3.93903 l 0.16236,0.16243 0.16243,-0.32486 0.85277,-0.24367 0.20308,0.24367 1.62435,-0.60914 0.24364,0.20304 q 0.64974,-0.52793 1.29949,-0.52793 0.20303,0 0.4467,0.0404 l 0.12124,0.48728 1.5025,-0.89339 0.20306,0.16242 1.13703,-0.934 q 0.12138,0.20303 0.28425,0.12138 0.20308,-0.0404 0.3249,-0.12138 l 8.40602,-0.20307 0.36548,0.20307 0.8934,-0.4061 1.62431,0.4061 q 0.12125,-0.0809 0.2843,-0.0809 0.36548,0 0.93397,0.69039 0.56853,0.69034 0.56853,1.05582 l -0.16243,0.85276 1.05585,0.48734 0.60912,-0.60915 q 0,0.28428 0.5279,0.28428 0.48735,0 0.64979,-0.28428 l 0.36548,-0.5685 2.27408,2.39588 0.48731,-0.81215 0.89339,-0.40608 q 0.12138,0.20303 0.28426,0.20303 0.40606,0 0.52791,-0.56851 1.05586,0.40609 1.46191,1.58371 l -0.16241,0.16242 q 1.2183,1.17764 1.42132,2.19286 l -0.20302,0.24368 q 1.4619,2.68014 1.4619,5.40097 0,0.4873 -0.0809,1.38069 -0.0404,0.8528 -0.0404,1.29948 0,1.17759 0.40609,1.98981 l -0.20304,0.16238 0.20304,1.01526 -1.29951,0.93396 q -0.81214,-0.52785 -1.09643,-0.40603 0.32488,1.4619 -0.81214,3.61414 l -0.36548,0.60913 q -0.64978,1.25888 -2.43653,2.88322 l -0.40611,0.85282 q -0.56851,-0.12138 -1.17768,0.77157 l 0,1.13701 0.2031,0.24366 q -0.4467,0.40611 -1.54312,2.27412 -0.77161,1.29943 -1.8274,2.15225 0.1624,0 0.1624,0.0809 -0.24369,0.0404 -0.60916,0.48731 -0.0404,0.32489 -0.0404,0.73098 0,1.74616 1.34008,3.93904 l 2.63959,4.30451 0.4467,0 q 1.38069,3.16751 8.48719,11.41108 l -0.20302,0.20303 q 0.85281,0.85281 0.85281,2.43654 0,0.32488 -0.2843,0.44671 z m -4.38573,-51.4919 0,0 z m -7.99993,-1.13704 -0.93398,-0.73095 q -0.0809,0.20302 -0.20305,0.20302 -0.0807,0 -0.16241,-0.12125 l -0.12125,-0.0404 q -0.0404,0.0809 -0.0404,0.24364 l 0,0.16241 0.73095,0.89337 0.3249,0 0.40607,-0.6091 z m -2.15228,9.46184 q -0.12124,-0.0809 -0.24361,-0.32486 0.32483,-0.60914 0.24361,-0.85281 -0.0809,-0.24362 -0.52791,-1.17766 l -1.70555,-0.85279 q -0.40609,0 -1.09647,0.4061 -0.20303,-0.20304 -0.40606,-0.20304 l 0,0.36549 q 0,0.0404 -0.0809,0.0404 -0.44671,0 -0.44671,-0.20305 l -0.93399,0.69038 -0.36548,0.16238 q -0.28426,-0.0404 -0.81216,0 l 0,0.4061 -0.73096,0.60915 q -0.36547,0.0809 -0.52793,-0.24366 l -0.60914,0.81217 q 0.16241,0 0.20304,0.12138 -0.0404,0.0809 -0.20304,0.4061 l -0.16242,0.32484 0.16242,0.12137 -0.16242,0.81223 q -0.12124,-0.0404 -0.12124,0.12124 0.0809,0.0809 0.12124,0.20302 l -0.40606,1.21828 q 0.0404,0 0.0404,0.0809 0,0.12125 -0.20305,0.36548 l 0.16241,0.24365 -0.16241,0.81223 q -0.12137,-0.0809 -0.12137,0.12124 l 0.12137,0.12138 q 0,0.5279 -0.40608,1.58378 -0.36548,1.05579 -0.36548,1.58373 l -0.24365,0.0809 0,0.81221 -0.32488,1.38066 0.16241,0.32492 -0.40607,2.19287 -0.16242,0.0404 0.16242,0.2031 -0.36549,0.64969 0.20305,2.19289 2.19286,-1.17768 q -0.12126,-0.28425 0.81217,-1.46191 1.01522,-0.28425 1.868,-1.74618 l -0.24366,-0.28421 0.81219,-0.5686 0,-0.40601 0.36549,0 0,-0.56857 0.4061,0 q 0.73095,-0.48732 1.29947,-1.70556 0.81217,-1.78676 0.934,-1.90859 l 0.40609,0 0.32484,-1.54316 q 0.28428,-1.17765 0.64974,-0.89335 0.934,-1.58376 0.934,-3.00508 0,-0.28424 -0.0404,-0.4873 z m -19.45157,7.47198 0,-0.28421 -0.2843,0 q 0.0404,0.12138 0.2843,0.28421 z m 0,1.17769 -0.20309,-0.24366 q -0.0809,-0.20307 0.20309,-0.4061 l -0.2843,-0.40611 0,0.89344 -0.24363,0.0404 0.24363,0.20299 -0.24363,0.0809 0,0.73094 0.28424,-0.77153 0.24369,-0.12138 z m 2.76137,15.2689 0,-2.2335 q 0,-0.81218 -0.0809,-0.85281 l -0.36549,0.73094 q 0.12126,0.24368 0.24368,0.40612 0,0.4061 -0.24368,0.69031 -0.24364,0.28432 -0.28425,0.48734 0,0.16241 -0.28425,0.69037 l -0.24367,0.0809 0.81217,1.09644 0.28427,0 0,-0.934 0.1624,-0.16242 z m -3.37051,1.09641 0,-0.40611 -0.28425,0 q 0.12124,0.24366 0.28425,0.40611 z" />
    <text
       xml:space="preserve"
       style="font-style:normal;font-weight:normal;font-size:24.23508263px;line-height:125%;font-family:sans-serif;letter-spacing:0px;word-spacing:0px;fill:#000000;fill-opacity:1;stroke:none;stroke-width:1px;stroke-linecap:butt;stroke-linejoin:miter;stroke-opacity:1"
       x="434.41724"
       y="1045.6078"
       id="text4158"
       sodipodi:linespacing="125%"><tspan
         sodipodi:role="line"
         id="tspan4160"
         x="434.41724"
         y="1045.6078" /></text>
    <rect
       style="fill:none;fill-opacity:1"
       id="rect4154"
       width="456.51401"
       height="452.6452"
       x="-43.670151"
       y="679.96448" />
  </g>
</svg>
