<svg
   xmlns:dc="http://purl.org/dc/elements/1.1/"
   xmlns:cc="http://creativecommons.org/ns#"
   xmlns:rdf="http://www.w3.org/1999/02/22-rdf-syntax-ns#"
   xmlns:svg="http://www.w3.org/2000/svg"
   xmlns="http://www.w3.org/2000/svg"
   xmlns:sodipodi="http://sodipodi.sourceforge.net/DTD/sodipodi-0.dtd"
   xmlns:inkscape="http://www.inkscape.org/namespaces/inkscape"
   width="100mm"
   height="100mm"
   viewBox="0 0 354.33071 354.33071"
   id="svg2"
   version="1.1"
   inkscape:version="0.91 r13725"
   sodipodi:docname="dmlogo.svg">
  <defs
     id="defs4" />
  <sodipodi:namedview
     id="base"
     pagecolor="#ffffff"
     bordercolor="#666666"
     borderopacity="1.0"
     inkscape:pageopacity="0.0"
     inkscape:pageshadow="2"
     inkscape:zoom="1.979899"
     inkscape:cx="168.41744"
     inkscape:cy="212.19147"
     inkscape:document-units="px"
     inkscape:current-layer="layer1"
     showgrid="false"
     inkscape:window-width="1301"
     inkscape:window-height="745"
     inkscape:window-x="-8"
     inkscape:window-y="-8"
     inkscape:window-maximized="1"
     showguides="true"
     inkscape:guide-bbox="true">
    <sodipodi:guide
       position="173.74623,383.85796"
       orientation="1,0"
       id="guide4428" />
  </sodipodi:namedview>
  <metadata
     id="metadata7">
    <rdf:RDF>
      <cc:Work
         rdf:about="">
        <dc:format>image/svg+xml</dc:format>
        <dc:type
           rdf:resource="http://purl.org/dc/dcmitype/StillImage" />
        <dc:title></dc:title>
      </cc:Work>
    </rdf:RDF>
  </metadata>
  <g
     inkscape:label="Layer 1"
     inkscape:groupmode="layer"
     id="layer1"
     transform="translate(0,-698.0315)"
     class="logo-oval">
    <ellipse
       style="fill:#444444;fill-opacity:0.48809521;fill-rule:evenodd;stroke:#000000;stroke-width:0.71567112px;stroke-linecap:butt;stroke-linejoin:miter;stroke-opacity:1"
       id="path3340"
       cx="173.63895"
       cy="874.59845"
       rx="113.48499"
       ry="147.22377" />
    <path
       style="fill:#000000;fill-opacity:1;fill-rule:evenodd;stroke:#000000;stroke-width:0.66350371px;stroke-linecap:butt;stroke-linejoin:miter;stroke-opacity:1"
       d="M 5.569065,1028.3831 244.88262,828.08626 281.70008,1044.196 Z"
       id="path3342"
       inkscape:connector-curvature="0" />
    <path
       style="font-style:normal;font-variant:normal;font-weight:normal;font-stretch:normal;font-size:medium;line-height:125%;font-family:'Nirmala UI';-inkscape-font-specification:'Nirmala UI';letter-spacing:0px;word-spacing:0px;fill:#000000;fill-opacity:1;stroke:none;stroke-width:1px;stroke-linecap:butt;stroke-linejoin:miter;stroke-opacity:1"
       d="m 194.57735,797.86316 0,33.17773 4.96484,0 0,-12.69336 c 0,-2.11563 0.82713,-3.84322 2.48242,-5.18554 1.65529,-1.35693 3.69481,-2.03711 6.11719,-2.03711 4.80439,0 7.20703,2.33492 7.20703,7.0039 l 0,12.91211 4.96484,0 0,-13.80859 c 0,-6.08426 -3.49203,-9.12695 -10.47656,-9.12695 -4.40065,0 -7.79181,1.41552 -10.17383,4.24609 l -0.12109,0 0,-14.48828 -4.96484,0 z m -100.71094,1.79492 0,31.38281 11.50586,0 c 7.12584,0 12.80771,-1.46573 17.04687,-4.39843 4.25936,-2.94729 6.39063,-6.84345 6.39063,-11.6875 0,-10.1988 -7.65176,-15.29688 -22.95313,-15.29688 l -11.99023,0 z m 5.08594,3.32617 6.7832,0 c 11.82929,0 17.74414,4.0192 17.74414,12.0586 0,4.04158 -1.58463,7.164 -4.75391,9.36718 -3.16928,2.20318 -7.60038,3.30469 -13.29297,3.30469 l -6.48046,0 0,-24.73047 z m 48.99414,5.1211 c -3.97674,0 -7.48895,0.70086 -10.53711,2.10156 l 0,3.67578 c 3.00778,-1.83841 6.37878,-2.75781 10.11328,-2.75781 4.25935,0 6.38867,1.90475 6.38867,5.71289 l -9.29687,0.9414 c -6.82304,0.68576 -10.23438,3.12306 -10.23438,7.31055 0,1.95513 0.86748,3.52325 2.60352,4.70508 1.75622,1.18184 4.17904,1.77148 7.26757,1.77148 4.1988,0 7.37911,-1.34072 9.53907,-4.02539 l 0.12109,0 0,3.5 4.96484,0 0,-14.57422 c 0,-5.57359 -3.64236,-8.36132 -10.92968,-8.36132 z m 30.40039,0 c -1.514,0 -2.98864,0.13878 -4.42188,0.41601 -1.41305,0.27721 -2.67489,0.69361 -3.78515,1.24805 -1.11026,0.53985 -1.99791,1.21808 -2.66407,2.03515 -0.66614,0.80248 -0.99804,1.72878 -0.99804,2.7793 0,0.86084 0.1705,1.61192 0.51367,2.25391 0.36336,0.64198 0.88788,1.21784 1.57422,1.72851 0.70652,0.49608 1.57595,0.94889 2.60547,1.35742 1.04969,0.39395 2.26012,0.78771 3.63281,1.18165 0.98913,0.27722 1.90802,0.54791 2.75586,0.81054 0.86802,0.24804 1.61445,0.53252 2.24023,0.85352 0.64596,0.32098 1.15031,0.6921 1.51367,1.11523 0.38355,0.40854 0.57618,0.91155 0.57618,1.50977 0,2.10104 -2.18073,3.15234 -6.54102,3.15234 -3.25003,0 -6.22665,-0.72155 -8.93164,-2.16601 l 0,3.85156 c 2.34164,0.89003 5.10545,1.33398 8.29492,1.33398 1.61491,0 3.1592,-0.12995 4.63281,-0.39258 1.47362,-0.26263 2.7758,-0.66523 3.90625,-1.20507 1.13044,-0.53986 2.02916,-1.21809 2.69532,-2.03516 0.68634,-0.81708 1.02929,-1.77979 1.02929,-2.88867 0,-0.90461 -0.21084,-1.68522 -0.63476,-2.3418 -0.40372,-0.65657 -0.98878,-1.23243 -1.75586,-1.72851 -0.7671,-0.51067 -1.69704,-0.96348 -2.78711,-1.35743 -1.09007,-0.40854 -2.32067,-0.80228 -3.69336,-1.18164 -1.02951,-0.2918 -1.94841,-0.5625 -2.75586,-0.81054 -0.80746,-0.24804 -1.49337,-0.52368 -2.05859,-0.83008 -0.56522,-0.30641 -0.99994,-0.65684 -1.30274,-1.05078 -0.2826,-0.39395 -0.42383,-0.88317 -0.42383,-1.4668 0,-0.46689 0.14123,-0.89018 0.42383,-1.26953 0.3028,-0.39395 0.71734,-0.72864 1.24219,-1.00586 0.54503,-0.27722 1.1906,-0.48886 1.9375,-0.63477 0.7469,-0.1605 1.58509,-0.24218 2.51367,-0.24218 2.96741,0 5.59197,0.54138 7.87305,1.62109 l 0,-3.63281 c -2.11959,-0.67117 -4.52223,-1.00781 -7.20703,-1.00781 z m -24.43555,11.59961 0,2.23242 c 0,1.91136 -0.80696,3.49521 -2.42187,4.75 -1.59474,1.2402 -3.62514,1.85937 -6.0879,1.85937 -1.7966,0 -3.24001,-0.34354 -4.33007,-1.02929 -1.0699,-0.70035 -1.60352,-1.59712 -1.60352,-2.69141 0,-1.50283 0.58504,-2.54529 1.75586,-3.12891 1.17082,-0.59821 2.90577,-1.0146 5.20703,-1.24804 l 7.48047,-0.74414 z"
       id="path4243"
       inkscape:connector-curvature="0" />
    <path
       inkscape:connector-curvature="0"
       id="path4407"
       style="font-style:normal;font-variant:normal;font-weight:normal;font-stretch:normal;font-size:medium;line-height:125%;font-family:'Monsters Attack!';-inkscape-font-specification:'Monsters Attack!';letter-spacing:0px;word-spacing:0px;fill:#ffffff;fill-opacity:1;stroke:none;stroke-width:1px;stroke-linecap:butt;stroke-linejoin:miter;stroke-opacity:1"
       d="m 112.61937,884.22787 q -0.0318,0 -0.22266,-0.44532 -0.19087,-0.44533 -0.34991,-0.44533 -0.0637,0 -0.0954,0.0318 l -0.47715,1.30418 q 0.0954,0 0.0637,0.28628 -0.0318,0.28629 0.0954,0.28629 l -0.50896,1.52686 0.19087,0.15904 q -1.49505,2.19485 -1.49505,3.62628 0.0954,0.0318 0.0954,0.12721 0,0.19087 -0.0954,0.19087 0,0.66799 0.54077,1.84495 0.54075,1.20875 0.54075,1.87675 0,0.92247 -0.63618,2.22666 l -0.41353,0 0,-0.92248 0.22266,-0.28628 -0.41351,-1.08152 q 0.19085,-0.0635 0.15904,-0.34991 -0.0318,-0.28628 0.0318,-0.28628 0,-1.46324 -2.06761,-3.53085 l 0,-1.14513 q 0,-0.73162 0.15905,-0.57258 -0.15905,-0.22266 -0.31809,-0.57256 0.0954,-0.0955 0.0954,-0.25448 0,-0.15905 -0.0954,-0.31809 l 0.63618,-1.55867 0.0954,0.19087 0.57258,-0.82705 -0.38172,-1.20876 q 0.28629,-0.15905 0.28629,-0.60439 0,-0.73161 -0.63619,-1.87674 -0.60438,-1.17696 -1.20877,-1.6859 -0.31809,0.54075 -0.66799,0.54075 -0.15904,0 -0.15904,-0.22266 l -0.92248,0.89066 q -0.44533,-0.668 -1.59047,-1.87675 l 0.15905,-0.22267 -0.15905,-0.0955 0.54077,-0.89067 -0.22268,-0.19085 0.22268,-0.22268 -0.15906,-0.25447 0.15906,-0.0637 -0.54077,-1.17694 0.15905,-0.22268 q -0.44533,-2.29027 -1.33601,-4.99407 0.19087,-0.0955 0.15906,-0.41353 -0.0318,-0.31809 0.0318,-0.31809 l -0.3499,-0.98609 0.15904,-0.25447 -0.3181,-1.27239 0,-3.43542 q -0.0954,-0.25447 -0.0954,-0.3499 0,-0.12722 0.0954,-0.12722 l -0.0637,-0.92248 -0.31809,0 -0.34991,1.08152 0.22266,0.15906 -0.31809,0.82703 0.0954,0.12722 q 0,0.57257 -0.44533,1.65409 -0.44534,1.08152 -0.44534,1.6859 l 0.22266,0.0954 q -0.28628,1.336 -1.30418,3.62627 l 0.50896,0.44534 q -0.50896,0.89067 -1.17696,3.27637 -0.60437,2.19485 -1.33599,3.21275 l -0.19085,-0.0955 q -0.0637,-0.3499 -0.0637,-0.69981 0,-0.73161 0.22267,-1.3678 l -0.668,-0.44534 -0.12722,0.15904 -0.25447,-0.0318 q -0.25447,-0.0637 -0.50894,-0.0637 -0.15906,0.0637 -0.15906,0.31809 -0.82703,-1.87676 -1.87675,-3.43542 l 0.15904,-0.38171 -0.38171,-0.15905 0.25449,-0.668 q 0.22266,-0.54076 0.12721,-0.89066 -0.31809,-0.44533 -0.31809,-0.50896 0,-0.15904 0.15905,-0.15904 l -0.73162,-1.71771 0.19085,-0.25448 -0.3499,-0.31809 0.15905,-0.22266 q -0.79524,-1.49505 -0.79524,-2.64018 0.15906,0 0.0954,-0.25449 -0.0318,-0.28628 0.0637,-0.28628 l -0.47714,-1.336 0.15904,-0.15904 -0.41352,-1.30419 -0.3499,0.0954 0.15904,0.22266 -0.41353,2.29029 q 0.12722,0.0318 0.0637,0.38172 -0.0637,0.3499 0.12721,0.3499 l -0.41352,1.30418 q 0.15905,0.0318 0.0954,0.57257 0,0.50896 -0.0954,0.76343 l 0,0.95428 q 0,0.76343 -0.22266,2.29029 -0.19087,1.52684 -0.19087,2.29027 0,0.38171 0.0637,0.47715 l -0.3181,0.92247 0.15906,0.22266 0,1.17695 q -0.0637,0.31809 -0.22268,1.6859 -0.15904,1.33599 0.0637,1.46324 0,0.57256 -0.3181,1.7177 -0.31809,1.11332 -0.31809,1.71771 l 0.22266,0.15904 -0.79523,1.65409 0.22267,0.12722 -0.3181,0.19086 0.0955,0.0955 q -0.34991,0.85886 -0.41353,3.18094 l 0.19085,0.22266 -0.28628,0.73162 0.0954,0.19087 -0.31809,0.73161 -0.25448,0 q -0.38172,-0.79524 -0.63619,-2.83104 -0.0318,-0.54076 -0.0318,-0.95428 0,-0.31809 0.0318,-0.38171 l -0.3499,-0.668 q 0.19086,-0.15905 0.19086,-0.31809 0,-0.57258 -0.50896,-0.57258 -0.25447,0 -0.31809,0.31809 -0.3499,-0.89066 -1.14514,-2.19484 -0.25448,0.57257 -0.50895,0.57257 -0.0954,-0.0318 -0.15905,-0.0954 -0.69981,-0.668 -0.98609,-2.41752 l -0.28628,0.73162 0.22266,0.22268 q 0,3.81712 -2.44932,6.04378 -0.15905,0.0637 -0.28629,0.0637 -0.34991,0 -0.34991,-0.41353 0,-0.38171 0.3181,-1.11333 l -0.0954,-0.15904 q 0.41353,-1.49505 0.41353,-2.7038 0,-1.08152 -0.41353,-1.87676 l 0,-1.36781 q 0,-0.60438 0.0954,-1.87676 0.0954,-1.27237 0.0954,-1.87675 0,-0.69981 -0.0954,-1.17695 l 0.22267,-0.3181 -0.31809,-1.20875 0,-3.59447 q 0,-0.47715 0.15904,-1.39962 0.19086,-1.14514 -0.0637,-1.39961 l 0.31811,-1.14513 0.0954,0.19085 1.11333,-1.49505 q 0.0954,-1.78133 -0.22266,-4.3897 l 0.31809,-0.50894 -0.41353,-1.94038 0,-5.21675 0.3181,-0.44533 -0.22266,-0.15905 1.39961,-1.14514 q -1.04971,0 -0.82705,-2.51294 l 0.25447,-2.83104 q 0.19087,-0.3499 0,-1.65409 -0.19085,-1.52686 -0.19085,-1.87676 0.15904,-0.3499 0.34991,-1.3678 l -0.15906,-0.25448 0.69981,-1.04971 -0.12721,-0.12721 0,-1.46324 0.41351,-1.55866 0,-2.00399 q 0,-3.59447 0.12721,-3.78532 l 1.336,-0.41353 0.15905,0.12722 0.57257,-0.44534 q 0.0637,0.0955 0.50895,0.0637 0.47714,-0.0637 0.47714,0.0318 l 1.11333,-0.92248 -0.15905,-0.3181 0.57258,-0.57256 0.31809,0.19085 0.60437,-0.3499 0.22267,0.15905 1.94038,-0.79524 q 0.41352,0.15905 0.668,0.15905 0.19085,0 0.25447,-0.15905 l 1.30418,0.98609 -0.22266,0.12722 0.47715,1.14514 q -0.0637,0.60438 -0.19087,1.24056 l 0.50896,2.13124 -0.15905,0.0954 0.54077,1.71771 -0.22268,0.15904 0.57258,1.55867 -0.15905,0.28628 2.09942,8.01598 -0.15905,0.15904 0.66799,2.19486 q -0.0637,0.19085 0,0.3499 -0.0637,0.31809 -0.0637,0.668 0,1.0179 0.47713,2.25846 l -0.15904,0.15905 0.38172,0.57257 -0.22268,0.19086 0.47715,0.85885 q 0.31809,0.0955 0.31809,-0.69981 -0.15905,-1.08152 -0.15905,-2.86285 -0.22266,-0.0637 -0.0637,-0.98609 0.0954,-0.38171 0.25447,-1.39961 l -0.19086,-0.15905 q 0,-0.38171 0.44533,-1.43142 0.44534,-1.08152 0.38172,-1.43143 -0.22267,-0.57256 -0.22267,-0.89066 0,-0.31809 0.22267,-0.31809 l -0.34991,-0.89067 q 0.12722,-0.0318 0.0318,-1.17694 -0.0318,-0.60439 -0.0318,-1.27239 l 0.34991,-0.60437 q 0.0954,-0.63619 -0.22267,-0.73162 l 0.3181,-1.11334 q -0.12722,0 -0.15906,-0.0954 0,-0.0318 0.19087,-0.2863 0.19085,-0.25447 0.19085,-0.28628 l -0.22266,-0.0637 0.41352,-1.24056 -0.19086,-0.0955 q 0,-0.0637 0.15905,-0.25447 0.19085,-0.22266 0.19085,-0.28628 l 0,-1.17696 -0.3499,-0.79523 0.19086,-0.47714 -0.19086,-0.89066 0.60437,-1.27239 0.3181,0.12722 q 0.31809,-0.12722 0.38171,-0.25447 l -0.15904,-0.34991 1.46323,-1.20876 0.19086,0.15905 1.14514,-0.82705 q 0.12722,0.0955 0.47714,0.0955 0.47714,-0.0637 0.50895,-0.19087 l 0,-1.04971 -0.44533,-0.63619 0.92247,-0.3499 0.22267,0.15905 0.19085,-0.38171 0.12722,0.22266 q 0.19085,-0.0637 0.25447,-0.15904 0.0954,0.0955 0.0954,0.15904 1.55865,-0.54075 2.44932,-1.14513 0.82704,1.30418 0.98609,2.13122 -0.0954,0.12722 -0.0954,0.54077 0,0.19085 0.0318,0.60437 0.0637,0.41353 0.0637,0.63619 0,0.44534 -0.15905,0.44534 l 0.54077,1.55865 q -0.22268,0.22268 -0.22268,0.31811 0,0.22266 0.22268,0.3817 l -0.38172,0.82705 0,3.75351 0.15904,0.34991 q 0.0637,0.22267 -0.15904,0.31809 l 0.38172,0.98609 -0.15905,0.54077 q 0,-0.25447 0.0954,0.92247 0.0637,0.57256 -0.31809,0.98609 -0.0318,0.22267 -0.0318,0.31809 0,0.25449 0.41352,0.31809 0.25447,0 0.50894,0.0637 l 0,0.50895 q 0.0637,0.57257 0,1.87675 l 0.22268,0.25449 q 0,0.19085 0.0318,0.57256 0.0637,0.41353 0,0.63619 -0.0637,0.31809 -0.25448,0.41353 l 0.41352,1.81314 q -0.0954,0.0318 -0.0954,0.12721 0,0.0955 0.0637,0.19087 -0.0637,0.0637 -0.12722,0.15904 l 0.3817,1.24057 -0.3817,1.20875 q 0.3181,0.3181 0.3817,3.08552 0.0318,2.79923 -0.3817,3.33998 0.15904,0.0637 0.15904,0.22268 0,0.12721 -0.0318,0.22266 -0.12722,0.63619 -0.12722,0.38171 0,9.95635 1.0497,11.86493 l -0.15904,1.20875 0.15904,0.25447 -0.31809,0.73162 q -0.0318,0.47715 0.31809,1.39961 l 0,0.57258 -0.15904,0.12722 q 0.3181,0.3499 0.3181,1.24058 0.12721,0.50894 0,1.65408 l -0.15906,1.43143 q 0.0954,0.0318 0.15906,0.28628 0.0954,0.28628 -0.15906,0.31809 0,1.08153 0.44534,3.18095 0.44534,2.09942 0.44534,3.18093 0,0.57258 -0.0637,1.11334 z m -7.53883,-34.83132 -0.47715,-0.73162 0,0.57258 -0.15904,0.0637 0.41352,0.41352 q 0,-0.15904 0.22267,-0.3181 z m -5.63028,0.25448 q -0.0318,-0.15905 -0.22266,-0.57257 0.15904,0 0.22266,-0.0318 -0.15904,-0.0637 -0.25447,-0.15904 l 0,1.24057 q 0.25447,-0.25447 0.25447,-0.47714 z m -2.00399,14.855 0,-1.14513 -0.19085,0 0,0.38171 q -0.12722,0 -0.22267,0.0318 0.12721,0.28628 0.41352,0.73161 z m -5.72569,-4.58055 -0.3499,-0.3181 q -0.57258,0.95428 -0.57258,1.78132 0,0.31811 0.0637,0.47715 0.0637,0.15905 0.0954,0.15905 0.0318,0 0.0318,-0.12722 l -0.0954,-0.0954 0.22266,-0.82704 q 0,0.0318 0.0318,0.0318 0.0318,0 0.0637,-0.0954 l -0.0954,-0.0954 0.60439,-0.89065 z m 16.79537,20.73975 q -0.15905,0.22266 -0.15905,0.57256 0.15905,-0.15905 0.15905,-0.57256 z" />
    <path
       inkscape:connector-curvature="0"
       id="path4409"
       style="font-style:normal;font-variant:normal;font-weight:normal;font-stretch:normal;font-size:medium;line-height:125%;font-family:'Monsters Attack!';-inkscape-font-specification:'Monsters Attack!';letter-spacing:0px;word-spacing:0px;fill:#ffffff;fill-opacity:1;stroke:none;stroke-width:1px;stroke-linecap:butt;stroke-linejoin:miter;stroke-opacity:1"
       d="m 132.69112,844.40248 0,0 z m -2.09942,-1.74952 q 0,0.0954 -0.0318,0.12721 0,-0.0954 0.0318,-0.12721 z m 7.88873,15.93652 q -1.17695,2.09943 -1.17695,4.48513 l 0.3499,0 -0.22266,0.12722 0.3181,0.31809 q 0,1.78133 0.12721,2.29029 l -0.12721,0.19085 0.12721,0.44534 q 0,0.3499 -0.3499,1.3678 -0.34991,0.98609 -0.28628,1.71771 0.12721,1.27237 -0.0318,1.43143 0.28629,0.41351 0.28629,1.14513 0,0.31809 -0.0954,0.95429 -0.0954,0.63619 -0.0954,0.95428 l 0.12721,0.19085 -0.41352,1.20877 q 0.19086,0.0954 0.19086,0.15904 0,0.0637 -0.19086,0.22267 -0.19085,0.12722 -0.19085,0.19085 0,0.12722 0.19085,0.15905 l -1.36781,3.84893 q -0.92247,2.25848 -1.87675,3.49904 l -0.12721,-0.12721 q -0.47715,1.0179 -1.39962,2.00399 -1.90856,1.97218 -1.78133,2.22665 l -0.47713,0.41353 -0.12722,-0.12722 -0.92247,0.57257 -0.15905,-0.12722 -0.89066,1.04971 -0.3499,-0.44532 q -0.12722,-0.0637 -0.76343,0.0318 -0.38172,0.0637 -0.41353,-0.0318 l -0.92247,0.22266 q -0.0637,-0.0637 -0.12721,-0.0637 -0.12722,0 -0.19085,0.0637 l -0.92249,-0.69981 q -0.19085,-0.0318 -0.34989,-0.0318 -0.3181,0 -0.44533,0.19085 -1.49505,-0.76342 -2.09943,-1.27237 -0.95428,-0.79524 -1.24057,-1.97218 -1.24056,-1.04972 -4.10342,-6.64818 l -0.0635,0.0318 -0.15905,-0.0954 q 0.0318,-0.15904 0.0318,-0.15904 0.0318,0 0.0637,0.0637 -0.41352,-0.44533 -0.89067,-1.59048 -0.47713,-1.14513 -0.89066,-1.59046 0.0637,-0.12722 -0.12721,-0.89068 -0.25448,-0.89065 -0.25448,-1.0179 0,-0.31809 0.22267,-0.47713 l -0.85885,-2.32208 q 0.0954,0 0.0954,-0.0955 0,-0.15905 -0.0954,-0.15905 -0.19087,-1.17694 -0.0954,-3.75351 l 0.15906,-3.40361 0.47713,-1.20875 q -0.0954,-0.0318 -0.0954,-0.25449 0,-0.19085 0.0954,-0.28628 l -0.31809,-0.73162 0.31809,-0.63619 q -0.0318,0 -0.0954,-0.0954 0.0637,-0.0955 0.0954,-0.22266 l 0,-2.00399 q 0.31809,0.0954 0.31809,-1.90858 l 0.15906,-0.0637 -0.15906,-0.12722 q 0.0954,-0.12721 0.3181,-0.3499 l -0.15904,-0.15905 q 0,-0.25448 1.11333,-2.79923 1.14513,-2.54475 1.39961,-2.86284 -0.0637,-0.0637 -0.0954,-0.12722 0.0954,-0.12722 0.22266,-0.0955 0,-1.17694 1.59048,-3.08551 1.74952,-2.09942 2.06761,-3.0537 l 0.63619,-0.38172 0.15904,-0.44532 0.95429,-0.60439 0.0954,0.15905 0.15905,-0.28628 0.15904,0.12722 0.41353,-0.44532 q 0.0954,0.19085 0.22267,0.19085 0.0635,0 0.19085,-0.12722 0.15905,-0.15905 0.22266,-0.15905 0.12722,0.0318 0.19087,0.0954 l -0.0955,0.22266 q 0.0637,0.0955 0.12722,0.19085 0.0637,0.0955 0.0954,0.19087 0,0.25447 -0.54075,0.47714 l -0.44534,0.41352 0.0954,0.0954 -0.0637,0.38172 q 0.0637,0.15905 0.3181,0.12721 l 0.54076,-0.41352 q -0.0318,-0.41353 0.668,-0.50896 l 1.11333,-0.25447 0.28629,-0.79524 0.73162,0 -0.12722,-0.25447 q 0.0637,0.0318 0.15904,0.0318 0.15905,0 0.2863,-0.0318 l 0.54075,0.44533 0.12722,-0.19086 1.30418,0.60439 0.31809,-0.12722 0.47715,0.44534 0.19085,-0.12722 q 0.57257,0.41352 0.85886,0.57256 0.69981,0.38172 1.04971,0.38172 l 0.47714,0.44534 q 0.57256,0.82705 1.52685,2.22666 -0.22267,0 -0.22267,0.19085 0.0318,0.12722 0.22267,0.41353 l 0.60438,0.44532 -0.12722,0.2863 q 0.44534,0 0.92249,0.85884 0.54075,0.95428 0.6998,1.0179 l -0.22267,0.12722 q 0.50896,1.49504 1.11333,2.09942 l -0.19085,0.0955 0.25447,0.57258 0.38172,0 q 0,0.38171 0.25447,1.04971 0.28628,0.668 0.28628,1.0179 l -0.0954,0.19085 0.22267,0.44534 q -0.12721,0.0318 -0.12721,0.19085 0,0.0637 0.15905,0.28629 0.15904,0.22267 0.15904,0.28629 -0.0637,0.0637 -0.19085,0.0637 l 0.31809,0.54075 -0.15905,0.19086 q 0.12722,0.0318 0.31809,0.25448 l -0.15904,0.19085 0.28628,0.44534 q -0.12721,0.15904 -0.0954,0.28628 l 0.0954,0.22266 q -0.0318,0.0955 -0.0318,0.50896 -0.0637,0.41352 0.0318,0.44533 z m -25.38391,3.0219 q -0.0637,0.0637 -0.0637,0.0954 0,-0.0954 0.0637,-0.0954 z m 0,0.31809 -0.0637,0.12722 q 0,-0.0955 0.0637,-0.12722 z m 0,0.44534 -0.0637,0.15904 q 0,-0.0955 0.0637,-0.15904 z m 16.35003,-18.73576 -0.12721,-0.44534 -0.41353,0 q -0.0954,0.63619 0.12722,0.98609 l 0.41352,-0.54075 z m 0.54077,21.21688 q -0.0318,0.0955 -0.0318,0.31809 0.0318,-0.15904 0.0318,-0.31809 z m -0.668,2.95828 q -0.0954,0.12722 -0.0954,0.28629 0.0954,-0.15906 0.0954,-0.28629 z m 0.9861,-6.90264 -0.15906,-0.0637 q 0.0318,-0.28628 0.0318,-0.57256 0,-1.39962 -1.30418,-2.95828 l -0.19086,0 0,1.59047 q 0.25448,0.69981 0.25448,1.62228 l 0,0.0637 q -0.0318,-0.0318 -0.0637,-0.12722 -0.19087,-0.82704 -0.89066,-1.97218 l -0.31811,-0.12722 q -0.12721,-0.60437 -1.27237,-2.44933 -1.11333,-1.87675 -1.62228,-2.3857 l -0.31809,0 q 0.0318,0.22267 0,0.50895 -0.25449,0.63619 -1.14514,3.18095 -0.79524,2.19484 -0.79524,2.92646 l -0.15904,0 0,0.82705 -0.15906,0.12722 0,0.73162 0.15906,0.0954 q 0,1.0179 -0.28629,2.32209 -0.44533,2.19485 -0.44533,2.3857 l -0.28629,0.95428 -0.19086,0 0,0.50896 0.41353,0.38171 0.47714,-0.38171 q 0.22266,-0.0955 0.25447,0.12722 l -0.0954,0.25447 0.47715,0.47714 q 0,0.15904 0.12721,0.54076 l 0,0.41352 -0.12721,0.0318 q 0.44533,0.50894 0.44533,0.63618 0,0.0637 -0.0318,0.0637 -0.0637,-0.0637 -0.15905,-0.0637 l 0.54077,0.69981 q -0.0637,0.12722 -0.12722,0.31809 l 0.38171,0 1.08153,2.004 q 0,0.19085 -0.12722,0.28628 l 1.04971,1.84495 q 0.3499,0 0.47715,0.25447 l 0.28628,-0.82704 0,0 q -0.0954,-0.15905 0.0954,-0.22267 0.0635,-0.0637 0.12722,-0.0637 0.0637,0 0.0954,0.0637 0.31809,-0.89066 0.85884,-2.67199 0.19087,0.0955 0.2863,-0.31809 0.12722,-0.44534 -0.0954,-0.44534 0.3181,-0.31809 0.3181,-0.85885 0,-0.28629 -0.0318,-0.54076 l 0.12721,0 q -0.12721,-0.89066 0.3181,-1.94037 0.0318,0.0637 0.0318,0.0637 0.0318,0 0.0637,-0.0637 -0.0637,-0.0318 -0.0954,-0.12722 l 0.41352,-1.08152 0.19085,-1.24057 q 0,-0.12721 0.57257,-2.19485 l 0,-0.41353 0.0954,-0.12721 q -0.0954,-0.92247 0.28629,-1.74952 -0.0954,0 -0.15905,-0.0637 -0.0318,-0.19085 0,-0.25447 l 0.3181,0 z m -1.11334,7.57064 0,-0.31809 -0.15905,0 0,0.31809 0.15905,0 z m 0,0.25447 -0.28628,-0.19085 -0.12722,0.76342 q -0.0954,-0.0318 -0.0954,0.0954 l 0.0954,0.0637 -0.31809,1.27237 q -0.0954,-0.0637 -0.0954,0.0955 -0.0637,0.12721 0.0954,0.12721 0,0.41351 -0.44534,1.36781 -0.44532,0.95428 -0.44532,1.27237 0.0637,0.0955 0.25447,0.12722 0.0318,0.0637 0.0637,0.0637 0.0954,0 0.0954,-0.0637 l -0.12721,-0.15906 q 0,-0.6998 0.41352,-0.6998 0.0637,0 0.0954,0.0318 l 0,-0.63619 q -0.0954,0 -0.0954,-0.0637 0,-0.15904 0.0954,-0.28629 0.12721,-0.73161 0.63619,-2.19485 l -0.12721,-0.0955 0.12721,-0.82705 0.19086,-0.0637 z m -14.47329,-10.81519 q -0.0318,0.12721 -0.0318,0.25447 0.0318,-0.12722 0.0318,-0.25447 z m 13.1373,16.12737 q -0.0318,-0.0954 -0.28628,-0.22267 l 0,0.22267 0.28628,0 z m -2.76742,1.46324 0,-0.25448 -0.3181,-0.50895 -0.19086,0 0.0954,0.0318 q 0,0.15904 -0.0954,0.28629 l 0.50896,0.44533 z m -0.28629,0.19085 0,0 z m -2.70379,1.97218 0,0 z m 2.48112,5.3758 q -0.0637,-0.0637 -0.12722,-0.0637 0.0637,0.0637 0.12722,0.0637 z m -4.32608,2.09943 0,-0.22268 q -0.0954,-0.0954 -0.15905,-0.3499 -0.15904,0 -0.44532,-0.0637 l 0,-0.41352 q 0.0954,0 0.12721,-0.0637 l -0.31809,0 q 0.38172,0.41353 0.41353,1.11333 l 0.38171,0 z" />
    <path
       inkscape:connector-curvature="0"
       id="path4411"
       style="font-style:normal;font-variant:normal;font-weight:normal;font-stretch:normal;font-size:medium;line-height:125%;font-family:'Monsters Attack!';-inkscape-font-specification:'Monsters Attack!';letter-spacing:0px;word-spacing:0px;fill:#ffffff;fill-opacity:1;stroke:none;stroke-width:1px;stroke-linecap:butt;stroke-linejoin:miter;stroke-opacity:1"
       d="m 156.42095,846.59732 -0.31809,0.73162 q 0.12722,0.0954 0.19085,0.25448 0,0.28628 -0.19085,0.28628 -0.0318,0.69981 0,1.336 l -0.31809,0.76343 q 0.0954,0.0954 0.12721,0.19085 0,0.25447 -0.12721,0.31809 l 0.19085,0.63619 q -0.3181,0.57258 -0.3181,2.29029 0,0.82703 0.15906,2.54474 0.15904,1.6859 0.15904,2.54476 0,0.38172 -0.0954,1.14515 -0.0954,0.7316 -0.0954,1.0815 l 0,0.89068 0.19085,0.12721 q -0.38172,0.50896 -0.38172,1.08152 0,0.22268 0.0637,0.41353 l -0.19085,0.0954 q 0,1.78133 -0.12722,1.81314 l 0.31809,0.89065 q -0.0954,0.12722 -0.0954,0.85887 l 0,0.95428 q -0.0318,0.15904 -0.0954,0.19085 l 0,0.85886 0.19085,0.0318 -0.31809,0.7316 0.12722,0.19087 -0.25449,0.95428 0.12722,0.50895 0,1.78133 -0.38172,0.668 0.38172,0.47714 -0.82705,0.31809 q -0.0954,0.15905 -0.0954,0.73162 0,0.57256 0.22266,0.57256 0,1.04971 -0.12721,3.05372 -0.12722,2.0358 0,3.11732 l -0.19085,0.0318 0,1.04971 0.19085,0.0954 -0.19085,0.19087 0.19085,0.12721 q 0,0.54077 -0.19085,0.54077 l 0.31809,0.50894 q -0.0954,0.0318 -0.0954,0.19087 0,0.12721 0.0954,0.19085 l -0.12722,0.76343 q -0.28628,0.0318 -0.28628,0.50894 l -0.0318,0.47715 q 0.22267,0.57256 0.12722,1.78133 l -0.73162,0 q 0.0954,-0.85886 -0.89066,-2.00399 -0.0637,-0.34991 0.12722,-0.82705 l -0.34991,-1.08153 -0.3499,0 q -0.95428,-1.49503 -0.89066,-2.35389 -1.04971,-0.73162 -1.46324,-2.16305 0.0318,-0.0318 0.0318,-0.0954 0,-0.25449 -0.73161,-1.36781 l 0.15905,-0.41352 q -0.73162,-1.27239 -0.92248,-2.89466 l -0.3181,-0.28629 0.12722,-0.19085 q -0.57257,-0.73162 -1.46324,-2.672 -1.17694,-2.7038 -1.30418,-2.92646 -0.69981,2.00399 -0.69981,3.91255 0.0637,0.12722 0.15905,0.82705 0.0636,0.54076 -0.15905,0.54076 l 0.31809,0.6362 q -0.0637,0.15904 -0.0318,0.47713 0,0.3499 0.0318,0.3499 l -0.31809,0.92248 0.25447,0.12722 -0.25447,0.19086 q 0,1.36781 0.25447,1.46323 l -0.57256,0.95429 0.19085,0.19085 -0.31809,0.44534 0,0.73162 -0.19086,0.0318 0.19086,0.22266 -0.19086,0.15904 0,0.95429 0.19086,0.0318 -0.3181,0.89066 0,2.48114 -0.31809,1.62228 -0.69981,0.25447 -0.25447,0.79524 0.12722,0.15905 q 0,0.85885 -1.59048,4.3897 0.19086,0.12722 0.19086,0.50894 0,0.22268 -0.0318,0.41353 -0.0318,0.22267 -0.0637,0.25447 -0.3181,0 -0.3181,-0.54075 0,-0.19085 0.0954,-0.19085 -0.15906,-0.34991 -0.15906,-1.59048 0,-1.90856 0.38172,-5.37579 l -0.22266,-0.19087 0.22266,-0.22266 -0.22266,-0.12721 0,-0.79523 -0.31811,-0.54077 q -0.41351,0 -1.0179,-0.31809 l -0.19085,1.0179 0.19085,0.15905 q -0.50894,0.79523 -0.50894,2.06762 l -0.41353,0.12721 q -0.3499,-0.3499 -0.3499,-1.14513 0,-0.85886 0.50895,-0.95429 l -0.28629,-0.50894 q 0.19086,0 0.19086,-0.12722 0,-0.19085 -0.31809,-0.73162 -0.3181,-0.54075 -0.38172,-0.668 l 0.19085,-0.22266 -0.31809,-0.50896 0.12722,-0.15904 -0.34991,-0.6998 q 0.19085,0 0.19085,-0.25448 -0.0635,-0.15905 -0.19085,-0.12721 l 0.34991,-0.85885 q -0.12722,-0.0637 -0.12722,-4.80324 l 0,-1.04969 0.31809,-0.44534 -0.19085,-0.12722 0,-1.52684 0.19085,-0.0954 -0.19085,-0.15905 0.19085,-0.19085 -0.19085,-0.95428 0.19085,-0.28628 -0.19085,-0.15906 q 0.0637,-0.60437 -0.0318,-1.78133 -0.0954,-1.17694 -0.0954,-1.74952 l -0.22266,-0.0318 0.22266,-0.15904 q -0.0318,-0.12721 0.0318,-0.69981 0.0637,-0.41352 -0.0318,-0.47714 l 0.44533,-0.668 -0.12721,-0.22266 0.12721,-0.668 0.3181,0.25447 0.15905,-0.82705 -0.15905,-0.47713 0.15905,-0.12722 -0.47715,-0.44533 0.19085,-0.19085 -0.31809,-0.668 q 0.0954,-0.0637 0.0637,-0.47715 -0.0637,-0.41352 -0.0637,-0.73161 0.22267,-1.6859 0.12722,-2.41752 -0.12722,-0.22266 0,-0.47713 0.19085,-0.34991 -0.12722,-0.79524 0.12722,0.19086 0.22267,0.19086 0.15904,0 0.15904,-0.2863 -0.0637,-0.12721 -0.38171,-0.44532 l 0.0637,-0.22267 0,0.22267 q 0.0318,0.0318 0.0637,0.0318 0.47714,0 0.47714,-2.57657 l 0,-2.00399 -0.28629,-0.82705 q 0.19086,0 0.0954,-0.22266 -0.0318,-0.0955 -0.0318,-0.15905 0,-0.0955 0.0637,-0.12722 l -0.31821,-0.44527 q 0.15906,0.0954 0.15906,-0.15904 0,-0.12722 -0.15906,-0.12722 -0.0318,-0.19086 -0.0318,-0.41352 0,-0.57257 0.34991,-1.27238 l 0.6998,-0.0954 q -0.0637,-0.57257 1.27238,-2.0358 1.3678,-1.46324 1.97219,-1.55867 l 0.63619,0.22267 q 0.0318,-0.19086 0.19085,-0.19086 0.12722,0 0.3499,0.19086 l 0.12722,0.73162 -0.12722,0.19085 q 0,0.41353 0.92248,2.54476 0.76342,1.84494 1.17695,2.7038 l -0.19085,0.22266 q 0.28628,1.39962 1.68589,4.008 1.78133,3.27636 2.09943,4.13522 l 0,-0.63618 q -0.12722,0.0637 -0.12722,0 l 0.0637,-0.0955 q 0.0637,-0.12721 0.0637,-0.15905 l -0.12722,-0.19085 0,-1.59048 q -0.22266,0 -0.12722,-0.63619 0.12722,-1.04971 0.12722,-0.79522 l -0.22266,-0.0637 0,-2.57657 0.22266,-0.0318 -0.22266,-0.19085 0,-1.39962 0.22266,-0.0637 0,-0.668 q 0,-0.15904 -0.12722,-1.20875 -0.0954,-0.66801 0.12722,-0.69981 0,-0.47714 0.0954,-1.78133 0.0954,-1.08152 0.0318,-1.74952 0.60437,-0.0318 1.33599,-1.24057 l 0.76343,0.6362 0.63619,-0.31811 q 0.50894,-0.63618 0.38171,-1.43141 l 0.89066,-0.47715 0.25447,0.15906 0.76343,-0.15906 0.12722,-0.85885 1.11333,-0.44533 0.25447,0.12722 0,1.14514 0.19085,0.0318 -0.19085,0.15905 0.19085,0.12722 0,4.13523 0.12722,0.28628 z m -7.09351,12.66016 -0.0954,0 q 0.0318,0.0637 0.0318,0.0637 0.0318,0 0.0637,-0.0637 z m -5.31216,1.46322 q -0.0954,0.15906 -0.0954,0.2863 0.0954,-0.12722 0.0954,-0.2863 z m 4.70779,4.70781 -0.28629,-0.19087 0,0.28629 q 0.19086,0.0318 0.19086,0.3181 l 0.0954,-0.41352 z m -3.59446,0.44532 q -0.0637,0.15905 -0.0637,0.2863 0.0637,-0.0955 0.0637,-0.2863 z m 8.74758,18.92662 q -0.12721,-0.0954 -0.12721,-0.22267 0,-0.19085 0.12721,-0.28628 l -0.41352,-0.3181 q -0.0954,0.668 0.12722,1.04971 l 0.28628,-0.22266 z m -12.11939,1.65409 q -0.0635,0.0955 -0.0635,0.41353 0.0635,-0.15906 0.0635,-0.41353 z" />
    <path
       inkscape:connector-curvature="0"
       id="path4413"
       style="font-style:normal;font-variant:normal;font-weight:normal;font-stretch:normal;font-size:medium;line-height:125%;font-family:'Monsters Attack!';-inkscape-font-specification:'Monsters Attack!';letter-spacing:0px;word-spacing:0px;fill:#ffffff;fill-opacity:1;stroke:none;stroke-width:1px;stroke-linecap:butt;stroke-linejoin:miter;stroke-opacity:1"
       d="m 174.52052,841.57143 -0.6998,0.3181 q 0.0954,0 0.0954,0.50895 0.0318,0.47714 0.19085,0.63619 l -0.28628,0.668 q 0.19085,0.0637 0.19085,0.22266 0,0.28628 -0.50894,0.95428 l -0.25449,0.69981 0.12722,0.0954 -0.41353,0.47715 -0.12721,-0.12722 -0.47715,0.63619 0.15905,0.15905 q 0.0954,0.89066 -0.89067,1.74952 0.15905,0.0637 0.15905,1.55866 l 0.25448,0.47714 -0.12722,0.0637 0.44534,0.6998 -0.0318,0.63619 -0.31809,0 q -0.0637,-0.50896 -1.14514,-2.00399 -1.04971,-1.49505 -1.49504,-1.68591 -2.00399,-3.97617 -2.83104,-3.97617 -0.22266,0 -0.22266,0.54075 l -0.19086,-0.12722 -0.54076,0.82704 0.12722,0.0955 -1.17694,2.44932 0.57256,1.81314 -0.15904,0.15904 0.89066,1.30419 -0.12722,0.15905 0.60439,0.89066 -0.19086,0.19086 0.44533,0.41353 -0.12721,0.12722 q 0.22267,0.54076 3.6899,4.99408 2.79922,3.53085 2.51294,4.89866 l 0.60437,1.04971 -0.15904,0.15904 0.60438,1.43143 q -0.0954,0.0637 0,2.19485 0.12721,3.0537 0.12721,2.25846 0,-0.31809 -0.15905,0.76343 -0.12721,0.57257 0.15905,0.76343 -0.73161,1.43142 -0.57257,2.06762 -0.3181,0.28628 -0.25448,0.31809 -0.0954,0 -0.15904,-0.0637 l -0.31809,1.14514 -0.47715,-0.66801 q -0.0954,0 -0.15905,0.22267 -0.0637,0.22266 -0.25447,0.19085 l -0.12722,0.79524 0.3817,0.82705 0.76343,0.47714 -0.12721,0.12721 q 0,-0.0954 0.0954,0.82704 0.0318,0.41353 -0.25447,0.82705 0.0637,0.0318 0.0637,0.0637 -0.0637,0.0955 -0.0954,0.15904 l -0.12722,-0.15904 -0.28629,0.60438 0.12721,0.19086 -0.54075,0.89066 0.12721,0.15904 -0.95428,1.36781 q -0.0318,0.12721 0.0637,0.22267 0.0954,0.0637 0.0954,0.0954 l -0.0954,0.15904 q -0.0954,0.15905 0.0954,0.19086 l -1.01791,1.14513 -0.25447,-0.12721 q -0.69981,0.95428 -2.41752,2.83102 l -0.25447,0 q 0.0318,0.0637 0.0637,0.0955 0.0318,-0.0637 0.0318,-0.38172 0,-0.22266 -0.41352,-0.31809 l -1.62228,0.85886 0.3499,0.63619 -0.3499,0.38171 -1.20876,-0.54076 -0.25448,-0.63619 q -1.55866,-1.04971 -5.7575,-5.66207 l 0.15904,-0.15905 -0.668,-0.95428 q 0.15906,0 0.19085,-0.0955 -0.19085,-0.15904 -0.3499,-0.38171 0.0637,-0.0637 0.15905,-0.0637 -0.38171,-0.92247 -0.47714,-1.14513 -0.38172,-0.66799 -0.79523,-0.89067 l 0.15904,-0.15904 -0.41352,-0.85886 q 0.22267,0 0.22267,-0.12722 0,-0.19086 -0.22267,-0.47714 l 0.25448,-0.57257 0.15904,-0.19086 q 0.0637,-0.41353 0.12722,-0.76343 l -0.28628,-0.60438 0.15904,-0.19085 -0.28629,-1.04971 0.54076,-0.89067 q -0.0954,-0.0318 -0.0954,-0.15904 0,-0.15905 0.0954,-0.22268 l -0.25447,-0.66799 0.25447,-0.38172 0.60439,0.2863 0,-0.69981 -0.0954,-0.15905 q 0.0318,-0.12722 0.0318,-0.22266 0,-0.12722 -0.0637,-0.15906 l 0.57256,-1.08152 0.0954,0.12722 0.85886,-0.668 0.69981,0.38171 -0.19087,0.15904 q 0.38172,0.76343 1.39962,2.03581 -0.0637,0 -0.0318,0.38171 0.0318,0.3499 -0.0954,0.3499 l 0.41352,0.69981 q 0.0637,0.22268 -0.12722,0.668 l 0.63619,1.17695 q 0.0637,0.0637 0.12721,0.0637 -0.15904,0 0.22268,-0.92249 0.38171,0.82706 1.46323,2.09943 l -0.12721,0.12721 0.82705,1.62228 0.57256,0.12722 0.60438,-0.50896 0.12722,-0.19085 q 0,-0.0637 -0.0637,-0.22266 -0.0637,-0.19086 -0.0637,-0.25449 l 0.12722,0.12722 0.22266,0 0.57256,-1.33599 -0.15904,-0.12722 q 0.34991,-0.85885 1.11333,-2.54475 l -0.28628,-0.60439 0.12722,-0.3499 -0.54076,-0.73162 0.28629,-0.85885 q -0.12722,-0.0637 -0.12722,-0.25447 0,-0.12721 0.12722,-0.15905 l -0.41353,-0.79524 0.12722,-0.12722 q 0,-0.57256 -3.59447,-5.43941 l -4.45332,-6.01198 q 0.0637,-0.0318 0.0637,-0.19086 0,-0.15905 -0.0637,-0.15905 l 0.38171,-0.60437 -1.04971,-1.36781 0.15905,-0.12722 -0.82705,-1.43142 0.12722,-0.12722 -0.31811,-0.60439 q 0.19087,-0.0318 0.12722,-0.15904 l -0.12722,-0.25447 0.19087,-1.04971 -0.19087,-0.12722 0.12722,-0.22266 q 0.0637,-0.12722 -0.12722,-0.19086 l 0.47715,-1.27238 -0.15904,-0.0954 q 0.15904,-0.0955 0.28628,-0.31809 -0.0318,-0.0318 -0.12721,-0.0318 l 0.38171,-1.0179 -0.12722,-0.12721 q 0.69981,-2.09943 1.46324,-2.86286 l 0,-0.38171 0.69981,-0.57257 -0.15904,-0.0954 q 0.47713,-0.47715 1.14513,-1.27237 l -0.19085,-0.15906 0.60437,-0.73162 -0.12721,-0.15904 q 2.22666,-1.6541 3.21275,-3.11732 l -0.12721,-0.28628 0.3181,-0.57258 0.28629,0.12722 0.57256,-0.25448 0.25447,0.12722 0.12722,-0.60438 -0.69981,-0.89065 q -0.0954,-0.12722 0,-0.38172 l 0.28629,0.12722 0,-0.25447 q 1.17695,0.12721 1.81314,0.66799 l 1.33599,-0.54075 q 0.0318,0.22266 0.63619,0.31809 l 0.54077,0.0955 0.12721,-0.12722 0.28628,0.12722 q 0.0318,-0.0637 0.0637,-0.12722 l 0.85886,0.41352 q 0.0318,0.34991 -0.15905,0.85885 1.30418,1.14515 2.3857,2.41752 l -0.12721,0.12722 0.44532,0.41352 q -0.0318,0.12722 0.12721,0.44532 l 0.15904,0.28629 -0.15904,0.0318 q 0.0954,0.0954 0.28629,0.41352 l 0.31809,0.54077 -0.19085,0.3817 1.0179,0.50896 z m -11.22873,35.18123 0,-0.22266 q -0.0954,0 -0.12722,-0.12721 l -0.22267,0 0,0.3499 0.3499,0 z" />
    <path
       inkscape:connector-curvature="0"
       id="path4415"
       style="font-style:normal;font-weight:normal;font-size:medium;line-height:125%;font-family:sans-serif;letter-spacing:-5.94000006px;word-spacing:0px;fill:#ffffff;fill-opacity:1;stroke:none;stroke-width:1px;stroke-linecap:butt;stroke-linejoin:miter;stroke-opacity:1"
       d="m 176.49271,847.74246 q -0.0318,0.0637 -0.0637,0.19087 0,-0.12722 0.0637,-0.19087 z m 14.25062,-7.88873 0.12722,0 -0.12722,0 z m 21.18508,-0.57257 q -0.54076,0.95428 -2.51294,1.6859 l 0.22266,0.31809 -0.22266,-0.25447 -0.41352,0 0,0.41351 -2.03581,0.73162 -1.46323,0.15905 0,0.82704 1.14514,-0.15904 -3.21276,1.55866 -0.22266,-0.15904 -0.50895,0.31809 -0.15904,-0.15905 -1.52686,0.57257 -0.15904,-0.15905 q -0.0954,0.15905 -0.34991,0.47715 l -0.15905,-0.15906 -1.87676,0.73162 q 0,-0.15904 -0.0954,-0.15904 -0.0637,0 -0.28628,0.15904 -0.19086,0.15906 -0.25448,0.15906 -0.0955,-0.0318 -0.15904,-0.15906 l -1.46324,0.57257 -0.12722,-0.15904 q -0.3499,0.15904 -1.97218,0.41352 -1.43143,0.22266 -1.43143,0.41352 0.0637,0.0954 0.15906,0.22267 l -1.52686,0 q -0.19085,0.44534 -0.69981,0.44534 l -0.54075,0 -0.19087,1.0179 -0.44532,0 q 0.12722,0.85885 -0.0954,2.51293 -0.19087,1.65409 -0.19087,2.41752 l -0.28628,0.31809 q -0.0954,1.3042 -0.0954,2.7038 0,1.36782 0.0954,2.76742 -0.668,2.25848 -0.50895,3.27638 l -0.19086,0.12722 0.19086,0.12721 -0.19086,1.43143 q -0.22266,0.76343 -0.54075,1.24056 0.0637,0.0318 0.0637,0.22268 0,0.15904 -0.0318,0.44533 -0.0637,0.6998 0.12721,0.85885 l -0.50894,1.97218 0.0954,0.19087 -0.47715,1.7177 -0.41353,0.54076 0.15906,0.0954 -0.3181,0.668 0.41352,1.11333 0.3181,0 0,-1.04971 0.3181,0 -0.0954,0.15904 q 0.0954,1.08152 -0.38171,2.29029 l 0.15905,0.15904 q -0.3499,0.73162 -0.89067,2.29029 l 0,2.22665 -0.25447,0.0637 q 0.0318,0.34991 0.0318,0.69981 0,1.04971 -0.34991,2.06761 0.15904,0 0.15904,0.63619 0,3.21276 -0.89066,5.50303 0.19086,0.15905 0.3181,2.44933 l -0.47715,1.43142 q 0.12722,0 0.12722,0.0955 0,0.12722 -0.28628,0.57257 -0.28629,0.47714 -0.25448,0.50894 l -0.50895,-0.57257 0.25447,-0.25447 -0.41351,-1.08152 0.41351,-1.04971 q -0.19085,0 -0.15904,-0.25447 0,-0.22268 0.15904,-0.15906 l -0.41351,-0.79522 0.15904,-0.15906 q -0.19085,-0.63618 -1.20876,-2.13123 -0.92248,-1.336 -0.9861,-2.22665 0.22268,0 0.15905,-0.22268 0,-0.25447 -0.15905,-0.19085 l -0.57256,-1.62228 q -0.19085,0.0955 -0.19085,0.34991 0,0.22266 0.19085,0.57256 0,0.15904 -0.12722,0.44534 -0.12722,0.28628 -0.12722,0.44532 l 0.25447,0.0955 -0.41352,0.57256 0.15905,0.2863 -1.04971,1.81312 -0.47715,-0.82703 0.12722,-0.12722 -0.31809,-0.57256 q -0.22268,-0.85887 -0.22268,-1.81315 0,-0.50895 0.0637,-1.04971 -0.25448,0.12722 -0.25448,-0.57256 l 0.25448,-0.19087 -0.25448,-0.22266 -0.15905,-4.58056 0.41353,-0.89066 q -0.15904,-0.0954 -0.15904,-0.31809 0,-0.0637 0.0318,-0.22268 0.0635,-0.19085 0.0635,-0.28628 0,-0.15904 -0.19085,-0.15904 l 0.41353,-1.30419 0,-2.22666 q 0,-0.50895 0.22266,-1.87676 0.19086,-1.17694 0.0954,-1.87675 l 0.25447,-0.0637 -0.25447,-0.15906 0.41353,-0.79522 -0.15906,-0.12722 0.3181,-0.73162 -0.15904,-0.28628 q 0.22266,-0.25447 0.3499,-1.24056 0.12722,-1.0179 0.38172,-1.3042 0.19085,-0.15904 0.19085,-0.98609 l 0,-1.08152 -0.57257,-0.57257 0.22266,-0.44533 q -0.0637,-0.79523 0.19085,-2.67199 0.25449,-2.0358 0.57258,-2.48114 l -0.28628,-0.19085 0.41351,-0.95428 q -0.12722,0 -0.12722,-0.0954 0,-0.0954 0.15904,-0.3499 0.15906,-0.28628 0.15906,-0.38171 -0.0318,-0.0955 -0.19087,-0.0955 l 0.34991,-1.04971 -0.15904,-0.25447 q 0.47714,-0.82705 0.47714,-1.87676 0,-0.47714 -0.0954,-0.98609 -0.15905,0 -0.85886,0.0318 -0.22266,0.0637 -0.34991,0.0637 -0.19085,0 -0.22266,-0.0954 l -2.13123,0.76342 q 0,-0.25447 -0.15904,-0.25447 -0.0318,0 -0.22268,0.15904 -0.19085,0.15906 -0.28628,0.0954 l -1.14514,-0.98609 -0.15904,-0.73162 0.57256,-0.25447 0.57258,-1.39962 -0.25448,-0.22266 0.41352,0.0954 0.15906,-0.6998 q -0.15906,-0.12722 -0.82706,-1.78133 -0.0637,0 -0.0637,0.0318 l -0.41352,-0.92247 q -0.0637,-0.15904 0,-0.25447 l 0.25448,0.19085 q 0.15904,0.15905 0.28628,0.15905 0.0637,0 0.0954,-0.0318 0.0637,-0.0637 0.0637,-0.82705 0.0318,-0.79523 0.2863,-0.69981 l -0.57258,-0.98609 q 0.25447,0.0637 0.57258,0.0637 0.3499,0 0.79522,-0.0637 l 0.668,0.31809 0.19087,-0.22266 0.28628,0.22266 0.41352,-0.0954 q 0.41353,-0.0637 0.41353,0.0954 l 1.20875,-0.31809 q 0,0.0954 0.12722,0.0954 0.15904,-0.0637 1.27237,-0.44534 l 0,-0.31809 0.19085,-0.0637 -0.19085,-0.22266 0.19085,-0.25447 -0.19085,-0.15905 0.19085,-0.19085 0,-0.73162 q 0.12722,-0.0954 0.15905,-0.22268 -0.0318,-0.0954 -0.0318,-0.19085 0,-0.0637 0.0954,-0.0637 l 0,-0.92247 0.25447,-0.0637 0,-1.20876 0.0954,-0.0318 0,-0.98609 -0.3499,-0.28629 q -0.0637,-0.25448 -0.0637,-0.44533 0,-0.47714 0.31809,-0.73161 0.79524,-0.3181 1.97218,-1.20877 l 0,-0.63619 0.63619,-0.3499 q 0.0954,0.31809 0.25448,0.31809 0.0637,-0.0318 0.0954,-0.0637 l 0,-0.25447 q 0.31809,0 0.47714,0.25447 0.50896,-1.27237 1.84496,-1.27237 0.25447,0 0.50894,0.0318 -0.15904,-0.25447 0.73162,-0.25447 l 0.3499,-0.15906 0.57257,0.41353 -0.19085,0.19085 0,0.73162 q 0.0954,-0.0318 0.19085,0.63618 l -0.57257,0.82705 0,1.04972 q 0,0.41352 -0.15904,0.50895 l -0.0954,0.12722 0,0.69981 -0.19087,0.12721 0,1.62228 -0.22266,0.12722 0,0.95428 q -0.0954,0.22266 -0.0954,0.47714 0.0318,0.50895 0.0954,0.60438 l -0.41352,0.63619 q 0.31809,0.0954 0.19086,0.3499 -0.0318,0.0954 -0.0954,0.15904 l 1.39961,-0.15904 q 0.0318,0.0318 1.59047,0.12722 1.24057,0.0637 1.43142,-0.12722 l 0.79524,0.31809 q 0.3181,-0.31809 2.95827,-0.31809 l 0.12722,-0.25447 0.25447,0.25447 0.0954,-0.25447 0.22266,0.25447 0.15905,-0.25447 1.336,0 0.41352,-0.3181 0.15904,0.22267 q 1.71771,-0.73162 2.76742,-0.79524 l 0.73162,0.44533 0.15905,-0.28628 q 0.0318,0 0.15904,0.15904 0.15906,0.12722 0.25448,0.12722 l 0.31809,-0.28629 q 0.0318,0 0.19086,0.15904 0.19085,0.12722 0.22267,0.12722 l 0.3499,-0.28628 0.12722,0.28628 0.19085,-0.28628 1.94038,0 0,0.73162 q 0.41351,0.31809 1.08152,0.31809 1.14513,0 2.51294,-0.76343 0.31809,0.28628 0.50896,0.28628 0.0954,-0.0318 0.12721,-0.15904 z m -8.7794,1.43141 0,-0.31809 -0.3499,0 q -0.0637,0.0954 -0.15906,0.47715 0.15906,-0.15906 0.50896,-0.15906 z m -16.50909,32.98639 q -0.0637,0.0954 -0.0637,0.15904 0.0637,-0.0637 0.0637,-0.15904 z m 0.15904,0.25447 -0.0637,0 q 0.0637,0.0318 0.0637,0 z m -6.61635,-11.61044 q -0.0637,0.0318 -0.0637,0 l 0.0637,0 z" />
    <path
       inkscape:connector-curvature="0"
       id="path4417"
       style="font-style:normal;font-weight:normal;font-size:medium;line-height:125%;font-family:sans-serif;letter-spacing:-5.94000006px;word-spacing:0px;fill:#ffffff;fill-opacity:1;stroke:none;stroke-width:1px;stroke-linecap:butt;stroke-linejoin:miter;stroke-opacity:1"
       d="m 223.29571,861.37228 -0.28112,0.4498 -0.36545,0 q -0.25302,-0.0844 -0.16868,-0.36546 l 0.4498,-0.50603 0.22489,0 0.14056,0.42169 z m 2.89558,15.04009 q 0,0.61848 -1.18072,1.85542 l -0.50603,0 -0.42167,1.46183 q -0.28113,1.01204 -0.64659,1.23694 l 0.16867,0.19679 q -0.1125,-0.0281 -0.4498,0.28111 -0.0281,0.28113 0.14056,0.44982 l -0.56225,0.36544 0.1125,0.0844 -0.73092,0.47792 0.16868,0.19677 -0.61847,0.44979 -0.22491,-0.16866 -0.56225,0.78714 -0.16866,-0.16867 -0.73093,0.73092 -0.30924,-0.14056 q -0.0844,0.0562 -0.28111,0.53413 l -0.25301,0 -0.0281,-0.16867 -0.33735,0.14056 0.16867,0.0562 -0.81526,0.53412 -0.14055,-0.11237 -0.89959,0.44979 q 0,-0.14056 -0.11251,-0.0844 -0.253,0.11238 -0.56224,0.11238 -0.19678,0 -0.50601,-0.0281 -0.30924,-0.0562 -0.50604,0.14056 l 0.50604,0.56224 -0.84338,0.61848 -0.1125,-0.16868 q -0.0844,0.19679 -0.30924,0.44979 l -0.14056,-0.16866 -1.51807,0.98392 q -0.0281,-0.0844 -0.0844,-0.0844 -0.0844,0 -0.16867,0.0281 -0.22491,0.0844 -0.28113,-0.0844 l -0.67469,0.44979 q -0.0844,-0.16868 -0.19679,-0.16868 -0.14056,0 -0.47791,0.19679 -0.33734,0.16868 -0.42168,0.16868 -0.16868,0 -0.16868,-0.19679 l -1.04015,0.19679 0.19679,0.25301 -0.36547,-0.33735 -0.73091,0.33735 -0.19679,-0.16868 -0.56225,0.39358 0.14056,0.14056 q 0,0.14055 -0.14056,0.19678 l -0.44979,-0.44979 q -0.16868,0.11237 -0.28113,0.36545 l 0.28113,0.73093 q 0,0.30924 -0.0563,0.9277 l -0.81526,-0.98393 0.25302,-0.28112 -1.43373,-1.34938 0.14056,-0.16869 q -0.98393,-1.01204 -1.12449,-1.65863 l -0.2249,0.1125 0.16867,-0.1125 -0.39357,-0.59036 q -0.0563,0.11238 -0.19678,0.11238 -0.14058,0 -0.50604,-0.14055 -0.36544,-0.14057 -0.56224,-0.14057 l -0.7028,0.36547 q -0.0563,-0.0562 -0.0844,-0.0562 l -1.26505,-0.30924 0.25301,-0.28112 q -0.73092,-0.36546 -2.19276,-0.8996 -0.0563,-0.4498 0.16868,-1.04015 l -0.73093,-0.53413 -0.14055,0.16866 q -0.53414,-0.36545 -1.06828,-0.73091 -0.73092,-0.50602 -0.64658,-0.87148 0.14056,-0.42169 0.14056,-1.63052 l -0.14056,-0.11237 0.28111,-0.16868 q 0.16869,-0.30923 0.22492,-0.78714 0.0281,-0.4498 -0.0563,-0.50603 l 1.26505,-0.56224 q -0.14056,0 -0.16867,-0.19679 -0.0563,-0.19678 0,-0.28111 l 0.16867,0.11237 q 0.25301,-0.22488 0.33735,-0.22488 0.0844,0.0281 0.0844,0.11237 l 1.18072,0 q -0.11238,-0.0844 -0.11238,-0.28113 0,-0.19679 0.11238,-0.28111 l -0.44979,-0.95583 0.16866,-0.19679 -0.28111,-0.9277 -0.33735,0.11237 q 0,-0.253 0.16867,-0.4498 l -0.59035,-0.87148 q 0.11237,-0.0844 0.11237,-0.28113 -0.0563,-0.28111 -0.253,-0.89959 -0.0562,-0.253 0,-1.29317 0.0844,-1.09638 0.0844,-1.79918 0,-1.06826 -0.2249,-1.06826 l 0,-0.78716 -0.16868,-0.253 0.30923,-0.16867 0,-0.87148 q 0.16869,-0.30924 0.16869,-0.42169 0,-0.0562 -0.0281,-0.0562 l 0.59037,-1.46183 0.28112,0.25301 0.33734,-0.73092 q -0.0563,-0.1968 -0.28111,-0.25302 l -0.16869,0.0844 q -0.70279,-0.19677 -1.40561,-1.04014 l 0.19678,-0.14057 -0.19678,-0.14057 0.19678,-0.33734 -0.36545,-0.0281 0.36545,0 1.04017,-1.48996 -0.28113,-0.16867 q 0.14056,-0.11251 0.28113,-0.30924 l 0,-0.28113 -0.16868,-0.14055 0.2249,-0.1125 q 0.19678,-0.11237 0.11237,-0.253 l 0,-4.04818 0.11251,-0.42169 q 0.11237,0.25303 0.44978,0.36546 0.11238,0 0.0844,-0.2249 -0.0563,-0.253 -0.0844,-0.36545 l 0.16868,-0.16867 -0.16868,-0.11238 0.92771,-0.81525 q 0,0.19678 0.1968,0.19678 0.11237,0 0.28111,-0.0281 l 0,-0.73092 q -0.11237,-0.0562 -0.0844,-0.4498 0.0844,-0.75903 0.0844,-0.4779 l -0.11237,-0.36546 q 0.16868,-1.60241 0.4498,-3.31725 l -1.54618,-1.26506 -0.19679,0.14055 q -0.0281,-0.0562 -0.0561,-0.11237 0,-0.0844 0.0844,-0.25302 0.0844,-0.19678 0.0844,-0.2249 0,-0.14056 -0.11238,-0.16867 l 0.95582,-1.18072 q -0.0844,0.36546 0.16868,0.36546 0.19678,0 0.19678,-0.14056 0,-0.14056 -0.0281,-0.2249 l 1.29317,-0.28111 0.14056,0.14055 0.16868,-0.28113 q 0.0844,-0.0562 0.14056,-0.0562 0.0844,0 0.16867,0.0562 0.0844,0.0281 0.22491,0.1125 0.11237,0 0.19678,-0.28112 l 0.95581,0.30924 q 1.29316,-0.19681 3.12047,-0.59037 0.0281,0.14056 0.67469,0.0844 l 0.81526,-0.0844 q 0.16868,-0.0562 1.1245,0.16868 l 0.0844,-0.16868 -0.16866,-0.28111 0.19677,0 0.14056,0.28111 q 0.30924,-0.0844 0.89961,-0.16867 l 0.253,-0.11238 0.11237,0.28112 0.16866,-0.28112 0.44981,0.56224 q -0.0281,-0.2249 0.59036,-0.28112 l 2.13653,-0.16868 q 0.0281,0 0.14055,0.16868 0.11251,0.16867 0.19681,0.16867 0.44978,0 0.44978,-0.33735 l 0.64658,0.33735 0.14057,-0.33735 0.61846,0.11237 q 0.78715,0.16868 0.9277,0.16868 0.47793,0 0.39358,-0.28113 l 0.64659,0.4498 0.28113,-0.28111 q 1.6305,-0.0281 4.8353,-0.4498 0.16869,-0.0281 0.28113,-0.0281 0.28113,0 0.75904,0.47792 l 0.28112,-0.16868 0.16867,0.64658 q -0.16867,0.16869 -0.0844,0.61848 0.0561,0.4779 0.19678,0.4779 l -0.7028,0.56225 q -0.0563,0.0844 -0.0563,0.16868 0,0.0562 0.0563,0.0562 0.0563,0 0.14056,-0.0281 l 0.14055,-0.0281 0,0.22489 -1.40561,0.73092 0,0.44979 -0.25301,-0.16866 q -0.4498,0.89959 -1.09638,1.57428 l -0.1125,-0.16867 q -0.64658,0.4498 -0.61847,0.61847 l -0.95583,0.36545 q -0.0281,0.0281 -0.0281,0.11238 0,0.0844 0.14056,0.16866 l 0.16868,0.0844 q -0.1125,-0.0563 -0.28113,-0.14057 0.19679,0 -0.67469,0.44981 -0.2249,0.0281 -0.70281,0.30923 l -0.47791,0.25302 q -0.0844,-0.0281 -0.1125,-0.11237 l -0.89959,0.64659 q -0.0281,-0.0563 -0.16866,-0.0563 -0.2249,0 -0.42169,0.0563 -0.47792,0.0844 -0.61848,0.14056 -0.25301,0.28113 -0.36546,0.30924 -0.0561,-0.0562 -0.0844,-0.14058 l -2.72689,1.46186 -0.16869,-0.1125 -1.12447,0.56225 -0.19679,-0.14056 -1.32128,0.44978 q -0.0563,0.39358 -0.36547,0.47792 -0.28112,0.0844 -0.44979,-0.1125 l -0.6747,0.56225 0.14056,0.11237 -0.28112,0.44979 0.14056,0.16869 -0.4498,1.51806 0.95583,0.89959 q 0.30922,0.0281 0.84336,-0.0563 0.56226,-0.11238 0.78714,-0.11238 0.0563,0 0.25302,0.16869 0.19679,0.16866 0.25301,0.16866 l 0.16868,-0.33735 0.67469,-0.11237 q 0.0844,0.11237 0.25301,0.11237 0.36545,0 0.75903,-0.53412 0.0844,-0.0281 0.33735,0.11237 0.25301,0.1125 0.30924,0.1125 0.19677,0 0.253,-0.2249 l 0.95583,0 0.0844,0.25301 0.81525,0 0.11237,-0.16867 q 0.1125,-0.14057 0.28113,-0.0844 l 0.53412,0.53414 q 0,-0.1125 0.0563,-0.1125 0.28111,0 0.28111,0.2249 0,0.14055 -0.14056,0.22489 l 0.6747,0.11237 q 0.253,-0.1968 0.39358,-0.1968 0.16866,0 0.253,0.1968 l 0.75902,-0.4498 0.28114,0.16867 0.78714,-0.4498 0.14057,0.16868 q 0.33734,-0.61847 1.06826,-0.98393 0,0.11237 0.0563,0.14056 0.14056,0 0.25301,-0.14056 0.0844,-0.0281 0.14056,-0.0281 0.0844,0 0.11238,0.19678 0,0.33735 -0.33736,0.98394 l 0.16868,0.11237 -0.33735,0.16866 q 0.16867,0.11251 0.16867,0.33736 -0.19678,-0.0281 -0.44979,0 l 0.16867,0.25301 -0.39358,0.84337 0.22491,0.25302 -0.6747,0.39357 q 0.1125,0.11237 0.0844,0.89959 0,0.75903 0.16867,0.75903 0.39358,-0.33734 1.04016,-0.56224 0.16867,0.0281 0.0844,0.19678 -0.0844,0.22489 -0.0844,0.28112 0,0.0281 0.14055,0.19679 0.14057,0.14056 0.14057,0.19678 l -0.16868,0.28113 -0.73091,1.15261 -0.50604,0 -0.61846,1.23694 -0.11237,-0.16868 -0.16869,0.33735 -0.22489,-0.16867 -0.50603,0.4498 -0.14056,-0.16869 -1.26506,1.04017 -0.14055,-0.14056 -0.16869,0.30922 -0.14055,-0.16866 -1.04016,0.89959 -1.12448,0.16866 -0.30924,-0.16866 -1.91165,0.73091 q -0.19677,-0.14056 -0.64657,-0.14056 l -0.14057,0.28113 -0.16867,-0.14057 -0.56224,0.50603 q -0.0844,0.0563 -0.16868,0.0563 -0.16867,0 -0.28111,-0.25302 l -0.61848,0.61847 0.16866,0.14057 -0.30922,0.56224 q 0.39357,0.14057 0.39357,0.4498 0,0.1125 -0.0844,0.28113 l -0.30924,0.16866 0.30924,0.16869 -0.30924,0.9558 q 0.16867,0 0.0844,0.39358 -0.0563,0.2249 -0.0844,0.50601 l 0.30924,0.28114 -0.16868,0.2249 0.16868,0.19678 -0.30924,0.0844 -0.28113,1.40562 q 0.0844,0.0281 0.0844,0.14057 0,0.19677 -0.253,0.78714 l 0.30922,0.78715 -0.30922,0.14055 1.1807,1.01204 q 0.0281,-0.11237 1.51807,-0.11237 l 1.77107,0 q 0.0844,0 0.25302,-0.14055 0.19678,-0.14058 0.28112,-0.14058 0.11237,0 0.14056,0.11238 l 1.06827,-0.28113 0.11237,0.11237 q 0.39358,0 1.06827,-0.33734 0.67469,-0.36545 1.06827,-0.36545 l 0.1125,0.14055 0.16866,-0.30924 0.16868,0.16869 0.11237,-0.28112 0.16868,0.11237 0.16867,-0.28112 q 0.22489,0 0.42169,0.16868 l 1.20883,-0.8996 q 0,0.16867 0.253,0.0844 0.19679,-0.0844 0.16868,-0.253 l 1.1245,-0.50602 0.36545,0.67469 -0.28112,0.11237 0.56224,0.4498 0.56225,-0.28111 0.19679,0.16866 1.48996,-0.89959 0.28111,0.14055 0,-0.36545 q 0.0563,-0.0281 0.0844,-0.0281 0.0844,0.0281 0.11237,0.25302 -0.0281,0.28111 -0.28113,0.56223 l 0.4498,0.44981 z m -1.68675,-32.27293 q -0.0844,0.0844 -0.0844,0.19678 0.0844,-0.0844 0.0844,-0.19678 z m 0.0844,2.7269 0,0 z m -2.64256,-2.61445 -0.0563,0.253 q 0.0563,-0.14055 0.0563,-0.253 z m -8.32125,0.33735 q -0.0844,0.0844 -0.0844,0.19677 0.0281,-0.0844 0.0844,-0.19677 z m -0.98393,9.3895 -0.0844,0 q 0.0561,0.0281 0.0844,0 z m -3.17668,4.83532 q -0.11238,-0.0844 -0.25301,-0.0844 l 0.25301,0.0844 z m 13.38146,20.07219 q 0.0844,0.11251 -0.0844,0.30924 -0.14057,0.19678 -0.28113,0.19678 l 0,-0.30923 q -0.0844,-0.0562 -0.16868,-0.0562 -0.14056,0 -0.19678,0.28113 -0.0281,0.14056 -0.0281,0.22489 0,0.0844 0.0281,0.14057 l -0.75903,0.33734 q -0.0281,-0.19679 -0.11237,-0.19679 -0.0844,0 -0.36547,0.25303 -0.28112,0.253 -0.36545,0.22489 -0.1968,-0.0844 -0.16869,-0.28113 0.0281,-0.11237 0.0844,-0.14056 0.0844,0.0281 0.1125,0.0562 l 0,0.11237 q 0.16868,0.14056 0.36547,0.14056 0.64657,0 1.29316,-0.87147 0.19678,-0.64659 0.44981,-0.64659 0.11237,0 0.19677,0.2249 z m -9.38951,-0.61846 q -0.0844,-0.0844 -0.25301,-0.1968 l 0,0.1968 0.25301,0 z m -14.75897,-8.54615 q -0.19678,-0.0281 -0.19678,-0.16867 0,-0.0844 0.0563,-0.14057 l 0.14057,-0.0844 -0.19679,-0.16868 0,0.89959 -0.16868,0.0844 0.16868,0.42169 0.19679,-0.84337 z m 16.69871,16.55814 q -0.14056,-0.0281 -0.16867,-0.14055 l -0.36546,0 0,0.28112 -0.16867,0.0844 0.44979,0 q 0.0281,0.0844 0.0844,0.14057 0,-0.14057 0.16867,-0.36547 z M 198.86616,872.1393 q -0.0844,0.0562 -0.0844,0.14055 0.0563,-0.0562 0.0844,-0.14055 z m 0.19678,2.67066 q 0.19679,-0.36545 0.19679,-0.7028 0,-0.19679 -0.36547,-0.87148 -0.33733,-0.70281 -0.33733,-1.01205 l 0.30923,-0.39357 q 0,-0.75904 -0.16868,-1.01204 l -0.36547,0 0.16869,0.0281 q 0,0.56225 -0.16869,1.06826 0.33735,0.50603 0.33735,0.95582 0,0.1968 -0.16866,0.16868 l 0.28111,0.78714 -0.16867,0.0844 0.4498,0.89961 z m -0.19678,3.09237 q -0.0844,0.14055 -0.0844,0.25301 l 0.0844,-0.25301 z" />
    <path
       inkscape:connector-curvature="0"
       id="path4419"
       style="font-style:normal;font-variant:normal;font-weight:normal;font-stretch:normal;font-size:medium;line-height:125%;font-family:'Monsters Attack!';-inkscape-font-specification:'Monsters Attack!';letter-spacing:0px;word-spacing:0px;fill:#ffffff;fill-opacity:1;stroke:none;stroke-width:1px;stroke-linecap:butt;stroke-linejoin:miter;stroke-opacity:1"
       d="m 258.74217,885.72292 -0.76343,-0.57256 -0.60438,0.44532 -0.6998,-0.44532 -0.22268,0.12721 -0.25447,-0.28628 q -0.15905,0.0637 -0.38171,0 l -0.85885,0.54076 q 0.12721,0.0637 0.12721,0.19086 0,0.15904 -0.0318,0.22266 -0.0637,0.25449 -0.22266,0.41353 l -1.62228,-0.76343 -0.22267,0.12721 -1.3678,-0.44533 -0.15905,0.19086 q -0.44533,-0.6362 -1.68589,-1.62229 -1.20877,-1.0179 -1.6541,-1.6859 -1.14513,-0.47713 -2.16304,-1.11333 l 0.28629,-1.97218 -1.14515,-0.85885 -0.57256,0.57257 -0.25447,-0.12722 -0.44534,0.44534 q -2.64018,-4.13523 -5.47122,-7.31618 l -0.31809,1.49505 0.12721,0.19085 q -0.12721,0.22268 -0.25447,0.89067 l -0.19085,2.16305 q -0.0318,0.12722 -0.0954,0.31809 -0.0954,0.15904 0.0954,0.25447 l -0.2863,0.95428 q 0.19087,0.0955 0.0955,0.47715 -0.0955,0.57257 -0.0955,0.44532 l 0.15906,3.59447 q 0.0318,0.12722 -0.15906,0.54076 -0.15904,0.38171 -0.15904,0.50896 0,0.19085 0.15904,0.19085 l -0.44532,1.27238 q 0.15904,0 0,1.11334 -0.19086,1.3678 -0.19086,2.0358 l -0.25447,0.22266 0,2.41752 q -0.19085,0.6998 -0.3181,0.82705 l -0.15905,-0.19087 q -0.47713,0.22266 -1.17694,0.89067 l 0.19085,0.3499 -0.12722,0.28629 q -0.0637,0.22266 0.12722,0.22266 l -0.63619,0.76343 q -0.0637,0.12722 -0.19085,0.12722 -0.22267,0 -0.31809,-0.44532 -0.0318,-0.44534 0,-0.50896 0.0318,-0.0318 0.0318,-0.12722 0,-0.28629 -0.34989,-0.6362 l 0.12722,-0.12721 0,-0.92249 -0.89066,0 q -0.0954,0.0955 -0.25449,0.0955 -0.22266,0 -0.44532,-0.22266 l 0.19085,-0.19087 q -0.0954,-0.0637 -0.79523,-0.95428 -0.38171,-0.50894 -0.38171,-1.0179 0,-0.25447 0.0637,-0.54075 l -0.69981,-0.44534 q 0.0637,-0.668 -0.28628,-1.65409 l -0.60437,-1.59048 q 0.19085,-0.0954 0.19085,-2.29027 0,-0.54075 0.12721,-0.79524 l -0.44533,-0.668 q 0.12721,-0.0637 0.12721,-2.13123 -0.0318,-0.19085 -0.0954,-0.28628 0.0318,-0.0637 0.0954,-0.0637 l -0.57256,-1.20875 q 0.15904,-1.59047 0.31809,-4.00798 0.12722,-2.09943 -0.0637,-2.13124 l 0.31809,-0.82705 q -0.0954,-0.0318 -0.0954,-0.12721 0,-0.15906 0.28628,-0.79524 0,-2.41752 0.50896,-3.3718 -0.22266,-0.0318 -0.22266,-0.25448 0,-0.38172 0.41351,-0.92247 l -0.19085,-0.12722 0.31809,-0.95428 -0.12722,-0.15904 0.57258,-1.46324 -0.57258,-0.66799 q 0.0637,-0.0637 0.0637,-0.19087 0,-0.12721 -0.0637,-0.12721 -0.0637,-0.69981 0.0954,-1.94039 0.15905,-1.3678 0.15905,-1.94037 l -0.12722,-0.12721 0,-0.60438 0.3181,-0.92247 q 0.0318,-0.63619 -0.19085,-1.46324 l 0.31809,-0.57256 q -0.0954,-0.0637 -0.0954,-0.50896 0,-0.44533 0.0954,-1.30418 l 0,-1.84495 q 0,-1.14513 0.44534,-1.6859 l -1.11334,-0.92247 -0.92248,0 -0.63619,-0.54077 0.19087,-0.12722 -0.19087,-1.0179 q 0.50896,-0.22267 2.09943,-3.08551 l 0.12721,0.12722 0.12722,-0.25448 0.668,-0.19085 0.15905,0.19085 1.27237,-0.47714 0.19087,0.15905 q 0.50894,-0.41352 1.0179,-0.41352 0.15904,0 0.3499,0.0318 l 0.0954,0.38171 1.17694,-0.69981 0.15905,0.12722 0.89066,-0.73162 q 0.0955,0.15904 0.22266,0.0955 0.15906,-0.0318 0.25449,-0.0955 l 6.58455,-0.15905 0.28628,0.15905 0.69981,-0.31809 1.27237,0.31809 q 0.0954,-0.0637 0.22267,-0.0637 0.28629,0 0.73161,0.54075 0.44534,0.54077 0.44534,0.82705 l -0.12722,0.668 0.82705,0.38172 0.47715,-0.47715 q 0,0.22267 0.41351,0.22267 0.38172,0 0.50896,-0.22267 l 0.28628,-0.44532 1.78133,1.87674 0.38172,-0.63618 0.6998,-0.31809 q 0.0955,0.15905 0.22267,0.15905 0.31809,0 0.41352,-0.44534 0.82705,0.3181 1.14514,1.24056 l -0.12721,0.12722 q 0.95428,0.92247 1.11333,1.71771 l -0.15905,0.19085 q 1.14514,2.09942 1.14514,4.23066 0,0.38171 -0.0637,1.08152 -0.0318,0.668 -0.0318,1.0179 0,0.92247 0.31809,1.55866 l -0.15904,0.12721 0.15904,0.79524 -1.0179,0.73162 q -0.63619,-0.41352 -0.85885,-0.31809 0.25447,1.14513 -0.63619,2.83103 l -0.28629,0.47714 q -0.50895,0.9861 -1.90856,2.25847 l -0.31809,0.668 q -0.44534,-0.0955 -0.92249,0.60438 l 0,0.89066 0.15906,0.19087 q -0.34991,0.31809 -1.20875,1.78131 -0.60439,1.01791 -1.43143,1.68592 0.12722,0 0.12722,0.0637 -0.19086,0.0318 -0.47714,0.38171 -0.0318,0.25448 -0.0318,0.57258 0,1.36781 1.04971,3.08552 l 2.06761,3.37179 0.34991,0 q 1.08152,2.48114 6.64816,8.93845 l -0.15904,0.15904 q 0.668,0.668 0.668,1.90857 0,0.25448 -0.22266,0.34991 z m -3.43542,-40.33435 0,0 z m -6.26646,-0.89067 -0.73162,-0.57257 q -0.0637,0.15905 -0.15905,0.15905 -0.0635,0 -0.12722,-0.0954 l -0.0954,-0.0318 q -0.0318,0.0637 -0.0318,0.19085 l 0,0.12721 0.57256,0.69981 0.25449,0 0.31809,-0.47714 z m -1.6859,7.4116 q -0.0954,-0.0637 -0.19086,-0.25447 0.25447,-0.47715 0.19086,-0.668 -0.0637,-0.19086 -0.41352,-0.92248 l -1.336,-0.668 q -0.31809,0 -0.85886,0.31809 -0.15904,-0.15904 -0.31809,-0.15904 l 0,0.28629 q 0,0.0318 -0.0637,0.0318 -0.34991,0 -0.34991,-0.15906 l -0.73162,0.54077 -0.28628,0.12722 q -0.22266,-0.0318 -0.63618,0 l 0,0.31809 -0.57257,0.47715 q -0.28628,0.0637 -0.41353,-0.19085 l -0.47714,0.63618 q 0.12721,0 0.15905,0.0955 -0.0318,0.0637 -0.15905,0.31809 l -0.12722,0.25447 0.12722,0.0955 -0.12722,0.63619 q -0.0954,-0.0318 -0.0954,0.0954 0.0637,0.0637 0.0954,0.15905 l -0.31809,0.95428 q 0.0318,0 0.0318,0.0637 0,0.0954 -0.15905,0.28628 l 0.12721,0.19086 -0.12721,0.63619 q -0.0955,-0.0637 -0.0955,0.0954 l 0.0955,0.0955 q 0,0.41352 -0.3181,1.24058 -0.28628,0.82703 -0.28628,1.24056 l -0.19086,0.0637 0,0.63619 -0.25447,1.08152 0.12721,0.25447 -0.31809,1.71771 -0.12722,0.0318 0.12722,0.15906 -0.2863,0.50894 0.15906,1.71771 1.7177,-0.92247 q -0.0954,-0.22268 0.63619,-1.14514 0.79524,-0.22267 1.46324,-1.36781 l -0.19087,-0.22266 0.6362,-0.44534 0,-0.31809 0.28629,0 0,-0.44534 0.31809,0 q 0.57257,-0.38171 1.0179,-1.33599 0.63619,-1.39962 0.73162,-1.49505 l 0.31809,0 0.25447,-1.20875 q 0.22268,-0.92247 0.50896,-0.69981 0.73162,-1.24056 0.73162,-2.35389 0,-0.22266 -0.0318,-0.38172 z m -15.23672,5.85293 0,-0.22266 -0.22267,0 q 0.0318,0.0955 0.22267,0.22266 z m 0,0.92247 -0.15905,-0.19085 q -0.0637,-0.15905 0.15905,-0.31809 l -0.22267,-0.3181 0,0.69981 -0.19085,0.0318 0.19085,0.15904 -0.19085,0.0637 0,0.57256 0.22266,-0.60437 0.19086,-0.0955 z m 2.16305,11.96036 0,-1.74952 q 0,-0.63619 -0.0637,-0.668 l -0.28629,0.57257 q 0.0954,0.19085 0.19085,0.31809 0,0.31809 -0.19085,0.54075 -0.19086,0.22268 -0.22267,0.38172 0,0.12721 -0.22266,0.54077 l -0.19087,0.0637 0.6362,0.85885 0.22266,0 0,-0.73162 0.12722,-0.12722 z m -2.64019,0.85884 0,-0.31809 -0.22266,0 q 0.0954,0.19085 0.22266,0.31809 z" />
    <text
       xml:space="preserve"
       style="font-style:normal;font-weight:normal;font-size:18.98369408px;line-height:125%;font-family:sans-serif;letter-spacing:0px;word-spacing:0px;fill:#000000;fill-opacity:1;stroke:none;stroke-width:1px;stroke-linecap:butt;stroke-linejoin:miter;stroke-opacity:1"
       x="373.4826"
       y="984.21204"
       id="text4158"
       sodipodi:linespacing="125%"><tspan
         sodipodi:role="line"
         id="tspan4160"
         x="373.4826"
         y="984.21204" /></text>
  </g>
</svg>